  0
SECTION
  2
HEADER
  9
$ACADVER
  1
AC1014
  9
$ACADMAINTVER
 70
     9
  9
$DWGCODEPAGE
  3
ANSI_1252
  9
$INSBASE
 10
0.0
 20
0.0
 30
0.0
  9
$EXTMIN
 10
1.000000000000000E+20
 20
1.000000000000000E+20
 30
1.000000000000000E+20
  9
$EXTMAX
 10
-1.000000000000000E+20
 20
-1.000000000000000E+20
 30
-1.000000000000000E+20
  9
$LIMMIN
 10
0.0
 20
0.0
  9
$LIMMAX
 10
12.0
 20
9.0
  9
$ORTHOMODE
 70
     0
  9
$REGENMODE
 70
     1
  9
$FILLMODE
 70
     1
  9
$QTEXTMODE
 70
     0
  9
$MIRRTEXT
 70
     1
  9
$DRAGMODE
 70
     2
  9
$LTSCALE
 40
1.0
  9
$OSMODE
 70
    37
  9
$ATTMODE
 70
     1
  9
$TEXTSIZE
 40
0.2
  9
$TRACEWID
 40
0.05
  9
$TEXTSTYLE
  7
STANDARD
  9
$CLAYER
  8
0
  9
$CELTYPE
  6
BYLAYER
  9
$CECOLOR
 62
   256
  9
$CELTSCALE
 40
1.0
  9
$DELOBJ
 70
     1
  9
$DISPSILH
 70
     0
  9
$DIMSCALE
 40
1.0
  9
$DIMASZ
 40
0.18
  9
$DIMEXO
 40
0.0625
  9
$DIMDLI
 40
0.38
  9
$DIMRND
 40
0.0
  9
$DIMDLE
 40
0.0
  9
$DIMEXE
 40
0.18
  9
$DIMTP
 40
0.0
  9
$DIMTM
 40
0.0
  9
$DIMTXT
 40
0.18
  9
$DIMCEN
 40
0.09
  9
$DIMTSZ
 40
0.0
  9
$DIMTOL
 70
     0
  9
$DIMLIM
 70
     0
  9
$DIMTIH
 70
     1
  9
$DIMTOH
 70
     1
  9
$DIMSE1
 70
     0
  9
$DIMSE2
 70
     0
  9
$DIMTAD
 70
     0
  9
$DIMZIN
 70
     0
  9
$DIMBLK
  1

  9
$DIMASO
 70
     1
  9
$DIMSHO
 70
     1
  9
$DIMPOST
  1

  9
$DIMAPOST
  1

  9
$DIMALT
 70
     0
  9
$DIMALTD
 70
     2
  9
$DIMALTF
 40
25.4
  9
$DIMLFAC
 40
1.0
  9
$DIMTOFL
 70
     0
  9
$DIMTVP
 40
0.0
  9
$DIMTIX
 70
     0
  9
$DIMSOXD
 70
     0
  9
$DIMSAH
 70
     0
  9
$DIMBLK1
  1

  9
$DIMBLK2
  1

  9
$DIMSTYLE
  2
STANDARD
  9
$DIMCLRD
 70
     0
  9
$DIMCLRE
 70
     0
  9
$DIMCLRT
 70
     0
  9
$DIMTFAC
 40
1.0
  9
$DIMGAP
 40
0.09
  9
$DIMJUST
 70
     0
  9
$DIMSD1
 70
     0
  9
$DIMSD2
 70
     0
  9
$DIMTOLJ
 70
     1
  9
$DIMTZIN
 70
     0
  9
$DIMALTZ
 70
     0
  9
$DIMALTTZ
 70
     0
  9
$DIMFIT
 70
     3
  9
$DIMUPT
 70
     0
  9
$DIMUNIT
 70
     2
  9
$DIMDEC
 70
     4
  9
$DIMTDEC
 70
     4
  9
$DIMALTU
 70
     2
  9
$DIMALTTD
 70
     2
  9
$DIMTXSTY
  7
STANDARD
  9
$DIMAUNIT
 70
     0
  9
$LUNITS
 70
     2
  9
$LUPREC
 70
     4
  9
$SKETCHINC
 40
0.1
  9
$FILLETRAD
 40
0.5
  9
$AUNITS
 70
     0
  9
$AUPREC
 70
     0
  9
$MENU
  1
.
  9
$ELEVATION
 40
0.0
  9
$PELEVATION
 40
0.0
  9
$THICKNESS
 40
0.0
  9
$LIMCHECK
 70
     0
  9
$CHAMFERA
 40
0.5
  9
$CHAMFERB
 40
0.5
  9
$CHAMFERC
 40
1.0
  9
$CHAMFERD
 40
0.0
  9
$SKPOLY
 70
     0
  9
$TDCREATE
 40
2457253.6387889
  9
$TDUPDATE
 40
2457253.638789606
  9
$TDINDWG
 40
0.0000000116
  9
$TDUSRTIMER
 40
0.0000000116
  9
$USRTIMER
 70
     1
  9
$ANGBASE
 50
0.0
  9
$ANGDIR
 70
     0
  9
$PDMODE
 70
     0
  9
$PDSIZE
 40
0.0
  9
$PLINEWID
 40
0.0
  9
$COORDS
 70
     1
  9
$SPLFRAME
 70
     0
  9
$SPLINETYPE
 70
     6
  9
$SPLINESEGS
 70
     8
  9
$ATTDIA
 70
     0
  9
$ATTREQ
 70
     1
  9
$HANDLING
 70
     1
  9
$HANDSEED
  5
11A
  9
$SURFTAB1
 70
     6
  9
$SURFTAB2
 70
     6
  9
$SURFTYPE
 70
     6
  9
$SURFU
 70
     6
  9
$SURFV
 70
     6
  9
$UCSNAME
  2

  9
$UCSORG
 10
0.0
 20
0.0
 30
0.0
  9
$UCSXDIR
 10
1.0
 20
0.0
 30
0.0
  9
$UCSYDIR
 10
0.0
 20
1.0
 30
0.0
  9
$PUCSNAME
  2

  9
$PUCSORG
 10
0.0
 20
0.0
 30
0.0
  9
$PUCSXDIR
 10
1.0
 20
0.0
 30
0.0
  9
$PUCSYDIR
 10
0.0
 20
1.0
 30
0.0
  9
$USERI1
 70
     0
  9
$USERI2
 70
     0
  9
$USERI3
 70
     0
  9
$USERI4
 70
     0
  9
$USERI5
 70
     0
  9
$USERR1
 40
0.0
  9
$USERR2
 40
0.0
  9
$USERR3
 40
0.0
  9
$USERR4
 40
0.0
  9
$USERR5
 40
0.0
  9
$WORLDVIEW
 70
     1
  9
$SHADEDGE
 70
     3
  9
$SHADEDIF
 70
    70
  9
$TILEMODE
 70
     1
  9
$MAXACTVP
 70
    64
  9
$PINSBASE
 10
0.0
 20
0.0
 30
0.0
  9
$PLIMCHECK
 70
     0
  9
$PEXTMIN
 10
1.000000000000000E+20
 20
1.000000000000000E+20
 30
1.000000000000000E+20
  9
$PEXTMAX
 10
-1.000000000000000E+20
 20
-1.000000000000000E+20
 30
-1.000000000000000E+20
  9
$PLIMMIN
 10
0.0
 20
0.0
  9
$PLIMMAX
 10
12.0
 20
9.0
  9
$UNITMODE
 70
     0
  9
$VISRETAIN
 70
     1
  9
$PLINEGEN
 70
     0
  9
$PSLTSCALE
 70
     1
  9
$TREEDEPTH
 70
  3020
  9
$PICKSTYLE
 70
     1
  9
$CMLSTYLE
  2
STANDARD
  9
$CMLJUST
 70
     0
  9
$CMLSCALE
 40
1.0
  9
$PROXYGRAPHICS
 70
     1
  9
$MEASUREMENT
 70
     0
  0
ENDSEC
  0
SECTION
  2
CLASSES
  0
CLASS
  1
ACDBDICTIONARYWDFLT
  2
AcDbDictionaryWithDefault
  3
ObjectDBX Classes
 90
        0
280
     0
281
     0
  0
CLASS
  1
VISUALSTYLE
  2
AcDbVisualStyle
  3
ObjectDBX Classes
 90
     4095
280
     0
281
     0
  0
CLASS
  1
MATERIAL
  2
AcDbMaterial
  3
ObjectDBX Classes
 90
     1153
280
     0
281
     0
  0
CLASS
  1
SUN
  2
AcDbSun
  3
SCENEOE
 90
     1024
280
     0
281
     0
  0
CLASS
  1
DICTIONARYVAR
  2
AcDbDictionaryVar
  3
ObjectDBX Classes
 90
        0
280
     0
281
     0
  0
CLASS
  1
XRECORD
  2
AcDbXrecord
  3
AutoCAD 2000
 90
        0
280
     0
281
     0
  0
CLASS
  1
LWPOLYLINE
  2
AcDbPolyline
  3
AutoCAD 2000
 90
        0
280
     0
281
     1
  0
CLASS
  1
HATCH
  2
AcDbHatch
  3
AutoCAD 2000
 90
        0
280
     0
281
     1
  0
CLASS
  1
ACDBPLACEHOLDER
  2
AcDbPlaceHolder
  3
ObjectDBX Classes
 90
        0
280
     0
281
     0
  0
CLASS
  1
LAYOUT
  2
AcDbLayout
  3
ObjectDBX Classes
 90
        0
280
     0
281
     0
  0
ENDSEC
  0
SECTION
  2
TABLES
  0
TABLE
  2
VPORT
  5
8
330
0
100
AcDbSymbolTable
 70
     1
  0
VPORT
  5
29
330
8
100
AcDbSymbolTableRecord
100
AcDbViewportTableRecord
  2
*ACTIVE
 70
     0
 10
0.0
 20
0.0
 11
1.0
 21
1.0
 12
0.0
 22
0.0
 13
0.0
 23
0.0
 14
0.5
 24
0.5
 15
0.5
 25
0.5
 16
0.0
 26
0.0
 36
1.0
 17
60.00044442944431
 27
30.00022221472199
 37
0.0
 40
1219.999999695
 41
2.0
 42
50.0
 43
0.0
 44
0.0
 50
0.0
 51
0.0
 71
     0
 72
   100
 73
     1
 74
     3
 75
     0
 76
     0
 77
     0
 78
     0
  0
ENDTAB
  0
TABLE
  2
LTYPE
  5
5
330
0
100
AcDbSymbolTable
 70
     1
  0
LTYPE
  5
14
330
5
100
AcDbSymbolTableRecord
100
AcDbLinetypeTableRecord
  2
BYBLOCK
 70
     0
  3

 72
    65
 73
     0
 40
0.0
  0
LTYPE
  5
15
330
5
100
AcDbSymbolTableRecord
100
AcDbLinetypeTableRecord
  2
BYLAYER
 70
     0
  3

 72
    65
 73
     0
 40
0.0
  0
LTYPE
  5
16
330
5
100
AcDbSymbolTableRecord
100
AcDbLinetypeTableRecord
  2
CONTINUOUS
 70
     0
  3
Solid line
 72
    65
 73
     0
 40
0.0
  0
ENDTAB
  0
TABLE
  2
LAYER
  5
2
330
0
100
AcDbSymbolTable
 70
     2
  0
LAYER
  5
10
330
2
100
AcDbSymbolTableRecord
100
AcDbLayerTableRecord
  2
0
 70
     0
 62
     7
  6
CONTINUOUS
  0
LAYER
  5
40
330
2
100
AcDbSymbolTableRecord
100
AcDbLayerTableRecord
  2
LAYER_1
 70
     0
 62
     7
  6
CONTINUOUS
  0
ENDTAB
  0
TABLE
  2
STYLE
  5
3
330
0
100
AcDbSymbolTable
 70
     1
  0
STYLE
  5
11
330
3
100
AcDbSymbolTableRecord
100
AcDbTextStyleTableRecord
  2
STANDARD
 70
     0
 40
0.0
 41
1.0
 50
0.0
 71
     0
 42
0.2
  3
txt
  4

  0
ENDTAB
  0
TABLE
  2
VIEW
  5
6
330
0
100
AcDbSymbolTable
 70
     0
  0
ENDTAB
  0
TABLE
  2
UCS
  5
7
330
0
100
AcDbSymbolTable
 70
     0
  0
ENDTAB
  0
TABLE
  2
APPID
  5
9
330
0
100
AcDbSymbolTable
 70
     1
  0
APPID
  5
12
330
9
100
AcDbSymbolTableRecord
100
AcDbRegAppTableRecord
  2
ACAD
 70
     0
  0
ENDTAB
  0
TABLE
  2
DIMSTYLE
  5
A
330
0
100
AcDbSymbolTable
 70
     1
  0
DIMSTYLE
105
27
330
A
100
AcDbSymbolTableRecord
100
AcDbDimStyleTableRecord
  2
STANDARD
 70
     0
  3

  4

  5

  6

  7

 40
1.0
 41
0.18
 42
0.0625
 43
0.38
 44
0.18
 45
0.0
 46
0.0
 47
0.0
 48
0.0
140
0.18
141
0.09
142
0.0
143
25.4
144
1.0
145
0.0
146
1.0
147
0.09
 71
     0
 72
     0
 73
     1
 74
     1
 75
     0
 76
     0
 77
     0
 78
     0
170
     0
171
     2
172
     0
173
     0
174
     0
175
     0
176
     0
177
     0
178
     0
270
     2
271
     4
272
     4
273
     2
274
     2
340
11
275
     0
280
     0
281
     0
282
     0
283
     1
284
     0
285
     0
286
     0
287
     3
288
     0
  0
ENDTAB
  0
TABLE
  2
BLOCK_RECORD
  5
1
330
0
100
AcDbSymbolTable
 70
    33
  0
BLOCK_RECORD
  5
1F
330
1
100
AcDbSymbolTableRecord
100
AcDbBlockTableRecord
  2
*MODEL_SPACE
  0
BLOCK_RECORD
  5
1B
330
1
100
AcDbSymbolTableRecord
100
AcDbBlockTableRecord
  2
*PAPER_SPACE
  0
BLOCK_RECORD
  5
41
330
1
100
AcDbSymbolTableRecord
100
AcDbBlockTableRecord
  2
BLOCK_2
  0
BLOCK_RECORD
  5
46
330
1
100
AcDbSymbolTableRecord
100
AcDbBlockTableRecord
  2
BLOCK_3
  0
BLOCK_RECORD
  5
4B
330
1
100
AcDbSymbolTableRecord
100
AcDbBlockTableRecord
  2
BLOCK_4
  0
BLOCK_RECORD
  5
50
330
1
100
AcDbSymbolTableRecord
100
AcDbBlockTableRecord
  2
BLOCK_5
  0
BLOCK_RECORD
  5
55
330
1
100
AcDbSymbolTableRecord
100
AcDbBlockTableRecord
  2
BLOCK_6
  0
BLOCK_RECORD
  5
5A
330
1
100
AcDbSymbolTableRecord
100
AcDbBlockTableRecord
  2
BLOCK_7
  0
BLOCK_RECORD
  5
5F
330
1
100
AcDbSymbolTableRecord
100
AcDbBlockTableRecord
  2
BLOCK_8
  0
BLOCK_RECORD
  5
64
330
1
100
AcDbSymbolTableRecord
100
AcDbBlockTableRecord
  2
BLOCK_9
  0
BLOCK_RECORD
  5
69
330
1
100
AcDbSymbolTableRecord
100
AcDbBlockTableRecord
  2
BLOCK_10
  0
BLOCK_RECORD
  5
6E
330
1
100
AcDbSymbolTableRecord
100
AcDbBlockTableRecord
  2
BLOCK_11
  0
BLOCK_RECORD
  5
73
330
1
100
AcDbSymbolTableRecord
100
AcDbBlockTableRecord
  2
BLOCK_12
  0
BLOCK_RECORD
  5
78
330
1
100
AcDbSymbolTableRecord
100
AcDbBlockTableRecord
  2
BLOCK_13
  0
BLOCK_RECORD
  5
7D
330
1
100
AcDbSymbolTableRecord
100
AcDbBlockTableRecord
  2
BLOCK_14
  0
BLOCK_RECORD
  5
90
330
1
100
AcDbSymbolTableRecord
100
AcDbBlockTableRecord
  2
BLOCK_15
  0
BLOCK_RECORD
  5
95
330
1
100
AcDbSymbolTableRecord
100
AcDbBlockTableRecord
  2
BLOCK_16
  0
BLOCK_RECORD
  5
9A
330
1
100
AcDbSymbolTableRecord
100
AcDbBlockTableRecord
  2
BLOCK_17
  0
BLOCK_RECORD
  5
9F
330
1
100
AcDbSymbolTableRecord
100
AcDbBlockTableRecord
  2
BLOCK_18
  0
BLOCK_RECORD
  5
A4
330
1
100
AcDbSymbolTableRecord
100
AcDbBlockTableRecord
  2
BLOCK_19
  0
BLOCK_RECORD
  5
A9
330
1
100
AcDbSymbolTableRecord
100
AcDbBlockTableRecord
  2
BLOCK_20
  0
BLOCK_RECORD
  5
AE
330
1
100
AcDbSymbolTableRecord
100
AcDbBlockTableRecord
  2
BLOCK_21
  0
BLOCK_RECORD
  5
B3
330
1
100
AcDbSymbolTableRecord
100
AcDbBlockTableRecord
  2
BLOCK_22
  0
BLOCK_RECORD
  5
B8
330
1
100
AcDbSymbolTableRecord
100
AcDbBlockTableRecord
  2
BLOCK_23
  0
BLOCK_RECORD
  5
BD
330
1
100
AcDbSymbolTableRecord
100
AcDbBlockTableRecord
  2
BLOCK_24
  0
BLOCK_RECORD
  5
C2
330
1
100
AcDbSymbolTableRecord
100
AcDbBlockTableRecord
  2
BLOCK_25
  0
BLOCK_RECORD
  5
C7
330
1
100
AcDbSymbolTableRecord
100
AcDbBlockTableRecord
  2
BLOCK_26
  0
BLOCK_RECORD
  5
CC
330
1
100
AcDbSymbolTableRecord
100
AcDbBlockTableRecord
  2
BLOCK_27
  0
BLOCK_RECORD
  5
D1
330
1
100
AcDbSymbolTableRecord
100
AcDbBlockTableRecord
  2
BLOCK_28
  0
BLOCK_RECORD
  5
D6
330
1
100
AcDbSymbolTableRecord
100
AcDbBlockTableRecord
  2
BLOCK_29
  0
BLOCK_RECORD
  5
DB
330
1
100
AcDbSymbolTableRecord
100
AcDbBlockTableRecord
  2
BLOCK_30
  0
BLOCK_RECORD
  5
E0
330
1
100
AcDbSymbolTableRecord
100
AcDbBlockTableRecord
  2
BLOCK_31
  0
BLOCK_RECORD
  5
E5
330
1
100
AcDbSymbolTableRecord
100
AcDbBlockTableRecord
  2
BLOCK_32
  0
BLOCK_RECORD
  5
EA
330
1
100
AcDbSymbolTableRecord
100
AcDbBlockTableRecord
  2
BLOCK_33
  0
ENDTAB
  0
ENDSEC
  0
SECTION
  2
BLOCKS
  0
BLOCK
  5
20
330
1F
100
AcDbEntity
  8
0
100
AcDbBlockBegin
  2
*MODEL_SPACE
 70
     0
 10
0.0
 20
0.0
 30
0.0
  3
*MODEL_SPACE
  1

  0
ENDBLK
  5
21
330
1F
100
AcDbEntity
  8
0
100
AcDbBlockEnd
  0
BLOCK
  5
1C
330
1B
100
AcDbEntity
 67
     1
  8
0
100
AcDbBlockBegin
  2
*PAPER_SPACE
 70
     0
 10
0.0
 20
0.0
 30
0.0
  3
*PAPER_SPACE
  1

  0
ENDBLK
  5
1D
330
1B
100
AcDbEntity
 67
     1
  8
0
100
AcDbBlockEnd
  0
BLOCK
  5
43
330
41
100
AcDbEntity
  8
0
100
AcDbBlockBegin
  2
BLOCK_2
 70
     0
 10
0.0
 20
0.0
 30
0.0
  3
BLOCK_2
  1

  0
SPLINE
  5
45
330
41
100
AcDbEntity
  8
LAYER_1
 62
   250
100
AcDbSpline
210
0.0
220
0.0
230
1.0
 70
    11
 71
     3
 72
    17
 73
    13
 74
     0
 42
0.0000000001
 43
0.0000000001
 12
1.0
 22
0.0
 32
0.0
 13
1.0
 23
0.0
 33
0.0
 40
0.0
 40
0.0
 40
0.0
 40
0.0
 40
1.0
 40
1.0
 40
1.0
 40
2.0
 40
2.0
 40
2.0
 40
3.0
 40
3.0
 40
3.0
 40
4.0
 40
4.0
 40
4.0
 40
4.0
 10
1034.854712258283
 20
614.8474077976882
 30
0.0
 10
1034.854712258208
 20
616.5291311588129
 30
0.0
 10
1036.222759675339
 20
617.8973508308414
 30
0.0
 10
1037.904655291238
 20
617.8973508309169
 30
0.0
 10
1039.586550907137
 20
617.8973508309923
 30
0.0
 10
1040.954598324391
 20
616.5291311590869
 30
0.0
 10
1040.954598324466
 20
614.8474077979622
 30
0.0
 10
1040.954598324542
 20
613.1656844368375
 30
0.0
 10
1039.586550907411
 20
611.797464764809
 30
0.0
 10
1037.904655291512
 20
611.7974647647335
 30
0.0
 10
1036.222759675613
 20
611.7974647646581
 30
0.0
 10
1034.854712258358
 20
613.1656844365635
 30
0.0
 10
1034.854712258283
 20
614.8474077976882
 30
0.0
  0
ENDBLK
  5
44
330
41
100
AcDbEntity
  8
0
100
AcDbBlockEnd
  0
BLOCK
  5
48
330
46
100
AcDbEntity
  8
0
100
AcDbBlockBegin
  2
BLOCK_3
 70
     0
 10
0.0
 20
0.0
 30
0.0
  3
BLOCK_3
  1

  0
SPLINE
  5
4A
330
46
100
AcDbEntity
  8
LAYER_1
 62
   250
100
AcDbSpline
210
0.0
220
0.0
230
1.0
 70
    11
 71
     3
 72
    17
 73
    13
 74
     0
 42
0.0000000001
 43
0.0000000001
 12
1.0
 22
0.0
 32
0.0
 13
1.0
 23
0.0
 33
0.0
 40
0.0
 40
0.0
 40
0.0
 40
0.0
 40
1.0
 40
1.0
 40
1.0
 40
2.0
 40
2.0
 40
2.0
 40
3.0
 40
3.0
 40
3.0
 40
4.0
 40
4.0
 40
4.0
 40
4.0
 10
1040.854690555394
 20
614.8474077979578
 30
0.0
 10
1040.854690555321
 20
616.4740096313184
 30
0.0
 10
1039.531429379377
 20
617.7974430619175
 30
0.0
 10
1037.904655291242
 20
617.7974430618447
 30
0.0
 10
1036.277881203107
 20
617.7974430617714
 30
0.0
 10
1034.954620027282
 20
616.4740096310534
 30
0.0
 10
1034.954620027355
 20
614.8474077976927
 30
0.0
 10
1034.954620027428
 20
613.220805964332
 30
0.0
 10
1036.277881203372
 20
611.8973725337327
 30
0.0
 10
1037.904655291507
 20
611.8973725338058
 30
0.0
 10
1039.531429379642
 20
611.8973725338786
 30
0.0
 10
1040.854690555467
 20
613.220805964597
 30
0.0
 10
1040.854690555394
 20
614.8474077979578
 30
0.0
  0
ENDBLK
  5
49
330
46
100
AcDbEntity
  8
0
100
AcDbBlockEnd
  0
BLOCK
  5
4D
330
4B
100
AcDbEntity
  8
0
100
AcDbBlockBegin
  2
BLOCK_4
 70
     0
 10
0.0
 20
0.0
 30
0.0
  3
BLOCK_4
  1

  0
SPLINE
  5
4F
330
4B
100
AcDbEntity
  8
LAYER_1
 62
   250
100
AcDbSpline
210
0.0
220
0.0
230
1.0
 70
    11
 71
     3
 72
    17
 73
    13
 74
     0
 42
0.0000000001
 43
0.0000000001
 12
1.0
 22
0.0
 32
0.0
 13
1.0
 23
0.0
 33
0.0
 40
0.0
 40
0.0
 40
0.0
 40
0.0
 40
1.0
 40
1.0
 40
1.0
 40
2.0
 40
2.0
 40
2.0
 40
3.0
 40
3.0
 40
3.0
 40
4.0
 40
4.0
 40
4.0
 40
4.0
 10
674.8546363934216
 20
614.8474077815254
 30
0.0
 10
674.8546363933465
 20
616.5291311426502
 30
0.0
 10
676.2230283200262
 20
617.8973508146787
 30
0.0
 10
677.9049239359251
 20
617.8973508147541
 30
0.0
 10
679.5868195518241
 20
617.8973508148295
 30
0.0
 10
680.9548669690784
 20
616.5291311429241
 30
0.0
 10
680.9548669691535
 20
614.8474077817995
 30
0.0
 10
680.9548669692292
 20
613.1656844206747
 30
0.0
 10
679.5868195520981
 20
611.7974647486461
 30
0.0
 10
677.9049239361991
 20
611.7974647485707
 30
0.0
 10
676.2230283203002
 20
611.7974647484954
 30
0.0
 10
674.8546363934973
 20
613.1656844204007
 30
0.0
 10
674.8546363934216
 20
614.8474077815254
 30
0.0
  0
ENDBLK
  5
4E
330
4B
100
AcDbEntity
  8
0
100
AcDbBlockEnd
  0
BLOCK
  5
52
330
50
100
AcDbEntity
  8
0
100
AcDbBlockBegin
  2
BLOCK_5
 70
     0
 10
0.0
 20
0.0
 30
0.0
  3
BLOCK_5
  1

  0
SPLINE
  5
54
330
50
100
AcDbEntity
  8
LAYER_1
 62
   250
100
AcDbSpline
210
0.0
220
0.0
230
1.0
 70
    11
 71
     3
 72
    17
 73
    13
 74
     0
 42
0.0000000001
 43
0.0000000001
 12
1.0
 22
0.0
 32
0.0
 13
1.0
 23
0.0
 33
0.0
 40
0.0
 40
0.0
 40
0.0
 40
0.0
 40
1.0
 40
1.0
 40
1.0
 40
2.0
 40
2.0
 40
2.0
 40
3.0
 40
3.0
 40
3.0
 40
4.0
 40
4.0
 40
4.0
 40
4.0
 10
680.8549592000812
 20
614.8474077817949
 30
0.0
 10
680.854959200008
 20
616.4740096151556
 30
0.0
 10
679.5316980240646
 20
617.797443045755
 30
0.0
 10
677.9049239359296
 20
617.7974430456818
 30
0.0
 10
676.2781498477946
 20
617.7974430456087
 30
0.0
 10
674.9545441624207
 20
616.4740096148906
 30
0.0
 10
674.9545441624938
 20
614.8474077815299
 30
0.0
 10
674.954544162567
 20
613.2208059481692
 30
0.0
 10
676.2781498480597
 20
611.8973725175698
 30
0.0
 10
677.9049239361946
 20
611.897372517643
 30
0.0
 10
679.5316980243296
 20
611.8973725177161
 30
0.0
 10
680.8549592001543
 20
613.2208059484342
 30
0.0
 10
680.8549592000812
 20
614.8474077817949
 30
0.0
  0
ENDBLK
  5
53
330
50
100
AcDbEntity
  8
0
100
AcDbBlockEnd
  0
BLOCK
  5
57
330
55
100
AcDbEntity
  8
0
100
AcDbBlockBegin
  2
BLOCK_6
 70
     0
 10
0.0
 20
0.0
 30
0.0
  3
BLOCK_6
  1

  0
SPLINE
  5
59
330
55
100
AcDbEntity
  8
LAYER_1
 62
   250
100
AcDbSpline
210
0.0
220
0.0
230
1.0
 70
    11
 71
     3
 72
    17
 73
    13
 74
     0
 42
0.0000000001
 43
0.0000000001
 12
1.0
 22
0.0
 32
0.0
 13
1.0
 23
0.0
 33
0.0
 40
0.0
 40
0.0
 40
0.0
 40
0.0
 40
1.0
 40
1.0
 40
1.0
 40
2.0
 40
2.0
 40
2.0
 40
3.0
 40
3.0
 40
3.0
 40
4.0
 40
4.0
 40
4.0
 40
4.0
 10
315.5015494606904
 20
614.8474077653918
 30
0.0
 10
315.5015494606153
 20
616.5291311265165
 30
0.0
 10
316.8695968777464
 20
617.8973507985447
 30
0.0
 10
318.5514924936454
 20
617.8973507986206
 30
0.0
 10
320.2333881095444
 20
617.8973507986959
 30
0.0
 10
321.6014355267987
 20
616.5291311267902
 30
0.0
 10
321.6014355268737
 20
614.8474077656655
 30
0.0
 10
321.6014355269494
 20
613.1656844045408
 30
0.0
 10
320.2333881098183
 20
611.7974647325125
 30
0.0
 10
318.5514924939194
 20
611.7974647324371
 30
0.0
 10
316.8695968780204
 20
611.7974647323614
 30
0.0
 10
315.5015494607661
 20
613.1656844042672
 30
0.0
 10
315.5015494606904
 20
614.8474077653918
 30
0.0
  0
ENDBLK
  5
58
330
55
100
AcDbEntity
  8
0
100
AcDbBlockEnd
  0
BLOCK
  5
5C
330
5A
100
AcDbEntity
  8
0
100
AcDbBlockBegin
  2
BLOCK_7
 70
     0
 10
0.0
 20
0.0
 30
0.0
  3
BLOCK_7
  1

  0
SPLINE
  5
5E
330
5A
100
AcDbEntity
  8
LAYER_1
 62
   250
100
AcDbSpline
210
0.0
220
0.0
230
1.0
 70
    11
 71
     3
 72
    17
 73
    13
 74
     0
 42
0.0000000001
 43
0.0000000001
 12
1.0
 22
0.0
 32
0.0
 13
1.0
 23
0.0
 33
0.0
 40
0.0
 40
0.0
 40
0.0
 40
0.0
 40
1.0
 40
1.0
 40
1.0
 40
2.0
 40
2.0
 40
2.0
 40
3.0
 40
3.0
 40
3.0
 40
4.0
 40
4.0
 40
4.0
 40
4.0
 10
321.5015277578015
 20
614.847407765661
 30
0.0
 10
321.501527757729
 20
616.4740095990218
 30
0.0
 10
320.1782665817848
 20
617.797443029621
 30
0.0
 10
318.5514924936499
 20
617.7974430295483
 30
0.0
 10
316.9247184055149
 20
617.7974430294751
 30
0.0
 10
315.6014572296901
 20
616.474009598757
 30
0.0
 10
315.6014572297626
 20
614.8474077653963
 30
0.0
 10
315.6014572298358
 20
613.2208059320355
 30
0.0
 10
316.9247184057799
 20
611.8973725014363
 30
0.0
 10
318.5514924939149
 20
611.8973725015094
 30
0.0
 10
320.1782665820499
 20
611.8973725015823
 30
0.0
 10
321.5015277578747
 20
613.2208059323003
 30
0.0
 10
321.5015277578015
 20
614.847407765661
 30
0.0
  0
ENDBLK
  5
5D
330
5A
100
AcDbEntity
  8
0
100
AcDbBlockEnd
  0
BLOCK
  5
61
330
5F
100
AcDbEntity
  8
0
100
AcDbBlockBegin
  2
BLOCK_8
 70
     0
 10
0.0
 20
0.0
 30
0.0
  3
BLOCK_8
  1

  0
SPLINE
  5
63
330
5F
100
AcDbEntity
  8
LAYER_1
 62
   250
100
AcDbSpline
210
0.0
220
0.0
230
1.0
 70
    11
 71
     3
 72
    17
 73
    13
 74
     0
 42
0.0000000001
 43
0.0000000001
 12
1.0
 22
0.0
 32
0.0
 13
1.0
 23
0.0
 33
0.0
 40
0.0
 40
0.0
 40
0.0
 40
0.0
 40
1.0
 40
1.0
 40
1.0
 40
2.0
 40
2.0
 40
2.0
 40
3.0
 40
3.0
 40
3.0
 40
4.0
 40
4.0
 40
4.0
 40
4.0
 10
315.5015495133097
 20
-557.152544469821
 30
0.0
 10
315.501549513234
 20
-555.4706488539208
 30
0.0
 10
316.8695969303651
 20
-554.1026014366671
 30
0.0
 10
318.5514925462641
 20
-554.1026014365914
 30
0.0
 10
320.2333881621631
 20
-554.1026014365162
 30
0.0
 10
321.6014355794173
 20
-555.4706488536474
 30
0.0
 10
321.6014355794931
 20
-557.152544469547
 30
0.0
 10
321.6014355795681
 20
-558.8344400854453
 30
0.0
 10
320.2333881624371
 20
-560.2024875026997
 30
0.0
 10
318.5514925465381
 20
-560.2024875027747
 30
0.0
 10
316.8695969306391
 20
-560.2024875028504
 30
0.0
 10
315.5015495133848
 20
-558.8344400857187
 30
0.0
 10
315.5015495133097
 20
-557.152544469821
 30
0.0
  0
ENDBLK
  5
62
330
5F
100
AcDbEntity
  8
0
100
AcDbBlockEnd
  0
BLOCK
  5
66
330
64
100
AcDbEntity
  8
0
100
AcDbBlockBegin
  2
BLOCK_9
 70
     0
 10
0.0
 20
0.0
 30
0.0
  3
BLOCK_9
  1

  0
SPLINE
  5
68
330
64
100
AcDbEntity
  8
LAYER_1
 62
   250
100
AcDbSpline
210
0.0
220
0.0
230
1.0
 70
    11
 71
     3
 72
    17
 73
    13
 74
     0
 42
0.0000000001
 43
0.0000000001
 12
1.0
 22
0.0
 32
0.0
 13
1.0
 23
0.0
 33
0.0
 40
0.0
 40
0.0
 40
0.0
 40
0.0
 40
1.0
 40
1.0
 40
1.0
 40
2.0
 40
2.0
 40
2.0
 40
3.0
 40
3.0
 40
3.0
 40
4.0
 40
4.0
 40
4.0
 40
4.0
 10
321.5015278104208
 20
-557.1525444695515
 30
0.0
 10
321.5015278103477
 20
-555.5257703814159
 30
0.0
 10
320.1782666344035
 20
-554.2025092055911
 30
0.0
 10
318.5514925462685
 20
-554.2025092056637
 30
0.0
 10
316.9247184581336
 20
-554.2025092057368
 30
0.0
 10
315.6014572823088
 20
-555.5257703816809
 30
0.0
 10
315.6014572823819
 20
-557.1525444698159
 30
0.0
 10
315.6014572824551
 20
-558.7793185579509
 30
0.0
 10
316.9247184583986
 20
-560.1025797337757
 30
0.0
 10
318.5514925465336
 20
-560.1025797337024
 30
0.0
 10
320.1782666346685
 20
-560.10257973363
 30
0.0
 10
321.501527810494
 20
-558.7793185576859
 30
0.0
 10
321.5015278104208
 20
-557.1525444695515
 30
0.0
  0
ENDBLK
  5
67
330
64
100
AcDbEntity
  8
0
100
AcDbBlockEnd
  0
BLOCK
  5
6B
330
69
100
AcDbEntity
  8
0
100
AcDbBlockBegin
  2
BLOCK_10
 70
     0
 10
0.0
 20
0.0
 30
0.0
  3
BLOCK_10
  1

  0
SPLINE
  5
6D
330
69
100
AcDbEntity
  8
LAYER_1
 62
   250
100
AcDbSpline
210
0.0
220
0.0
230
1.0
 70
    11
 71
     3
 72
    17
 73
    13
 74
     0
 42
0.0000000001
 43
0.0000000001
 12
1.0
 22
0.0
 32
0.0
 13
1.0
 23
0.0
 33
0.0
 40
0.0
 40
0.0
 40
0.0
 40
0.0
 40
1.0
 40
1.0
 40
1.0
 40
2.0
 40
2.0
 40
2.0
 40
3.0
 40
3.0
 40
3.0
 40
4.0
 40
4.0
 40
4.0
 40
4.0
 10
674.8546364460409
 20
-557.1525444536874
 30
0.0
 10
674.8546364459652
 20
-555.4706488377872
 30
0.0
 10
676.2230283726448
 20
-554.1026014205335
 30
0.0
 10
677.9049239885438
 20
-554.1026014204577
 30
0.0
 10
679.5868196044428
 20
-554.102601420382
 30
0.0
 10
680.954867021697
 20
-555.4706488375137
 30
0.0
 10
680.9548670217728
 20
-557.1525444534128
 30
0.0
 10
680.9548670218479
 20
-558.8344400693118
 30
0.0
 10
679.5868196047168
 20
-560.2024874865655
 30
0.0
 10
677.9049239888178
 20
-560.2024874866412
 30
0.0
 10
676.2230283729189
 20
-560.2024874867169
 30
0.0
 10
674.8546364461159
 20
-558.8344400695851
 30
0.0
 10
674.8546364460409
 20
-557.1525444536874
 30
0.0
  0
ENDBLK
  5
6C
330
69
100
AcDbEntity
  8
0
100
AcDbBlockEnd
  0
BLOCK
  5
70
330
6E
100
AcDbEntity
  8
0
100
AcDbBlockBegin
  2
BLOCK_11
 70
     0
 10
0.0
 20
0.0
 30
0.0
  3
BLOCK_11
  1

  0
SPLINE
  5
72
330
6E
100
AcDbEntity
  8
LAYER_1
 62
   250
100
AcDbSpline
210
0.0
220
0.0
230
1.0
 70
    11
 71
     3
 72
    17
 73
    13
 74
     0
 42
0.0000000001
 43
0.0000000001
 12
1.0
 22
0.0
 32
0.0
 13
1.0
 23
0.0
 33
0.0
 40
0.0
 40
0.0
 40
0.0
 40
0.0
 40
1.0
 40
1.0
 40
1.0
 40
2.0
 40
2.0
 40
2.0
 40
3.0
 40
3.0
 40
3.0
 40
4.0
 40
4.0
 40
4.0
 40
4.0
 10
680.8549592527005
 20
-557.1525444534179
 30
0.0
 10
680.8549592526274
 20
-555.5257703652817
 30
0.0
 10
679.5316980766833
 20
-554.2025091894569
 30
0.0
 10
677.9049239885483
 20
-554.20250918953
 30
0.0
 10
676.2781499004133
 20
-554.2025091896031
 30
0.0
 10
674.95454421504
 20
-555.5257703655473
 30
0.0
 10
674.9545442151132
 20
-557.1525444536823
 30
0.0
 10
674.9545442151863
 20
-558.7793185418172
 30
0.0
 10
676.2781499006783
 20
-560.102579717642
 30
0.0
 10
677.9049239888133
 20
-560.1025797175689
 30
0.0
 10
679.5316980769483
 20
-560.1025797174957
 30
0.0
 10
680.8549592527737
 20
-558.7793185415516
 30
0.0
 10
680.8549592527005
 20
-557.1525444534179
 30
0.0
  0
ENDBLK
  5
71
330
6E
100
AcDbEntity
  8
0
100
AcDbBlockEnd
  0
BLOCK
  5
75
330
73
100
AcDbEntity
  8
0
100
AcDbBlockBegin
  2
BLOCK_12
 70
     0
 10
0.0
 20
0.0
 30
0.0
  3
BLOCK_12
  1

  0
SPLINE
  5
77
330
73
100
AcDbEntity
  8
LAYER_1
 62
   250
100
AcDbSpline
210
0.0
220
0.0
230
1.0
 70
    11
 71
     3
 72
    17
 73
    13
 74
     0
 42
0.0000000001
 43
0.0000000001
 12
1.0
 22
0.0
 32
0.0
 13
1.0
 23
0.0
 33
0.0
 40
0.0
 40
0.0
 40
0.0
 40
0.0
 40
1.0
 40
1.0
 40
1.0
 40
2.0
 40
2.0
 40
2.0
 40
3.0
 40
3.0
 40
3.0
 40
4.0
 40
4.0
 40
4.0
 40
4.0
 10
1034.854712310902
 20
-557.1525444375243
 30
0.0
 10
1034.854712310826
 20
-555.4706488216246
 30
0.0
 10
1036.222759727958
 20
-554.1026014043704
 30
0.0
 10
1037.904655343856
 20
-554.1026014042953
 30
0.0
 10
1039.586550959755
 20
-554.1026014042196
 30
0.0
 10
1040.95459837701
 20
-555.4706488213507
 30
0.0
 10
1040.954598377085
 20
-557.1525444372503
 30
0.0
 10
1040.954598377161
 20
-558.8344400531487
 30
0.0
 10
1039.586550960029
 20
-560.202487470403
 30
0.0
 10
1037.90465534413
 20
-560.2024874704787
 30
0.0
 10
1036.222759728231
 20
-560.2024874705537
 30
0.0
 10
1034.854712310978
 20
-558.8344400534227
 30
0.0
 10
1034.854712310902
 20
-557.1525444375243
 30
0.0
  0
ENDBLK
  5
76
330
73
100
AcDbEntity
  8
0
100
AcDbBlockEnd
  0
BLOCK
  5
7A
330
78
100
AcDbEntity
  8
0
100
AcDbBlockBegin
  2
BLOCK_13
 70
     0
 10
0.0
 20
0.0
 30
0.0
  3
BLOCK_13
  1

  0
SPLINE
  5
7C
330
78
100
AcDbEntity
  8
LAYER_1
 62
   250
100
AcDbSpline
210
0.0
220
0.0
230
1.0
 70
    11
 71
     3
 72
    17
 73
    13
 74
     0
 42
0.0000000001
 43
0.0000000001
 12
1.0
 22
0.0
 32
0.0
 13
1.0
 23
0.0
 33
0.0
 40
0.0
 40
0.0
 40
0.0
 40
0.0
 40
1.0
 40
1.0
 40
1.0
 40
2.0
 40
2.0
 40
2.0
 40
3.0
 40
3.0
 40
3.0
 40
4.0
 40
4.0
 40
4.0
 40
4.0
 10
1040.854690608013
 20
-557.1525444372548
 30
0.0
 10
1040.85469060794
 20
-555.5257703491192
 30
0.0
 10
1039.531429431996
 20
-554.2025091732944
 30
0.0
 10
1037.904655343862
 20
-554.2025091733675
 30
0.0
 10
1036.277881255726
 20
-554.20250917344
 30
0.0
 10
1034.954620079901
 20
-555.5257703493842
 30
0.0
 10
1034.954620079974
 20
-557.1525444375199
 30
0.0
 10
1034.954620080047
 20
-558.7793185256542
 30
0.0
 10
1036.277881255991
 20
-560.1025797014789
 30
0.0
 10
1037.904655344126
 20
-560.1025797014064
 30
0.0
 10
1039.531429432261
 20
-560.1025797013333
 30
0.0
 10
1040.854690608086
 20
-558.7793185253892
 30
0.0
 10
1040.854690608013
 20
-557.1525444372548
 30
0.0
  0
ENDBLK
  5
7B
330
78
100
AcDbEntity
  8
0
100
AcDbBlockEnd
  0
BLOCK
  5
7F
330
7D
100
AcDbEntity
  8
0
100
AcDbBlockBegin
  2
BLOCK_14
 70
     0
 10
0.0
 20
0.0
 30
0.0
  3
BLOCK_14
  1

  0
POLYLINE
  5
81
330
7D
100
AcDbEntity
  8
LAYER_1
 62
   250
100
AcDb2dPolyline
 66
     1
 10
0.0
 20
0.0
 30
0.0
  0
VERTEX
  5
82
330
81
100
AcDbEntity
  8
LAYER_1
 62
   250
100
AcDbVertex
100
AcDb2dVertex
 10
321.3054588140202
 20
-1971.153584269779
 30
0.0
  0
VERTEX
  5
83
330
81
100
AcDbEntity
  8
LAYER_1
 62
   250
100
AcDbVertex
100
AcDb2dVertex
 10
140.6775522294028
 20
-1971.153584277888
 30
0.0
  0
VERTEX
  5
84
330
81
100
AcDbEntity
  8
LAYER_1
 62
   250
100
AcDbVertex
100
AcDb2dVertex
 10
140.6775522285949
 20
-1953.153304877007
 30
0.0
  0
VERTEX
  5
85
330
81
100
AcDbEntity
  8
LAYER_1
 62
   250
100
AcDbVertex
100
AcDb2dVertex
 10
-98.07238803289815
 20
-1953.153304887727
 30
0.0
  0
VERTEX
  5
86
330
81
100
AcDbEntity
  8
LAYER_1
 62
   250
100
AcDbVertex
100
AcDb2dVertex
 10
-98.07238803209025
 20
-1971.153584288608
 30
0.0
  0
VERTEX
  5
87
330
81
100
AcDbEntity
  8
LAYER_1
 62
   250
100
AcDbVertex
100
AcDb2dVertex
 10
-278.6944379543826
 20
-1971.153584296717
 30
0.0
  0
VERTEX
  5
88
330
81
100
AcDbEntity
  8
LAYER_1
 62
   250
100
AcDbVertex
100
AcDb2dVertex
 10
-278.6944380078093
 20
-781.1535249153974
 30
0.0
  0
VERTEX
  5
89
330
81
100
AcDbEntity
  8
LAYER_1
 62
   250
100
AcDbVertex
100
AcDb2dVertex
 10
-98.07238808551746
 20
-781.1535249072882
 30
0.0
  0
VERTEX
  5
8A
330
81
100
AcDbEntity
  8
LAYER_1
 62
   250
100
AcDbVertex
100
AcDb2dVertex
 10
-98.07238808470892
 20
-799.1536320533959
 30
0.0
  0
VERTEX
  5
8B
330
81
100
AcDbEntity
  8
LAYER_1
 62
   250
100
AcDbVertex
100
AcDb2dVertex
 10
140.6775521767842
 20
-799.1536320426762
 30
0.0
  0
VERTEX
  5
8C
330
81
100
AcDbEntity
  8
LAYER_1
 62
   250
100
AcDbVertex
100
AcDb2dVertex
 10
140.6775521759763
 20
-781.1535248965687
 30
0.0
  0
VERTEX
  5
8D
330
81
100
AcDbEntity
  8
LAYER_1
 62
   250
100
AcDbVertex
100
AcDb2dVertex
 10
321.3054587605936
 20
-781.1535248884595
 30
0.0
  0
VERTEX
  5
8E
330
81
100
AcDbEntity
  8
LAYER_1
 62
   250
100
AcDbVertex
100
AcDb2dVertex
 10
321.3054588140202
 20
-1971.153584269779
 30
0.0
  0
SEQEND
  5
8F
330
81
100
AcDbEntity
  8
LAYER_1
 62
   250
  0
ENDBLK
  5
80
330
7D
100
AcDbEntity
  8
0
100
AcDbBlockEnd
  0
BLOCK
  5
92
330
90
100
AcDbEntity
  8
0
100
AcDbBlockBegin
  2
BLOCK_15
 70
     0
 10
0.0
 20
0.0
 30
0.0
  3
BLOCK_15
  1

  0
SPLINE
  5
94
330
90
100
AcDbEntity
  8
LAYER_1
 62
   250
100
AcDbSpline
210
0.0
220
0.0
230
1.0
 70
    11
 71
     3
 72
   119
 73
   115
 74
     0
 42
0.0000000001
 43
0.0000000001
 12
1.0
 22
0.0
 32
0.0
 13
1.0
 23
0.0
 33
0.0
 40
0.0
 40
0.0
 40
0.0
 40
0.0
 40
1.0
 40
1.0
 40
1.0
 40
2.0
 40
2.0
 40
2.0
 40
3.0
 40
3.0
 40
3.0
 40
4.0
 40
4.0
 40
4.0
 40
5.0
 40
5.0
 40
5.0
 40
6.0
 40
6.0
 40
6.0
 40
7.0
 40
7.0
 40
7.0
 40
8.0
 40
8.0
 40
8.0
 40
9.0
 40
9.0
 40
9.0
 40
10.0
 40
10.0
 40
10.0
 40
11.0
 40
11.0
 40
11.0
 40
12.0
 40
12.0
 40
12.0
 40
13.0
 40
13.0
 40
13.0
 40
14.0
 40
14.0
 40
14.0
 40
15.0
 40
15.0
 40
15.0
 40
16.0
 40
16.0
 40
16.0
 40
17.0
 40
17.0
 40
17.0
 40
18.0
 40
18.0
 40
18.0
 40
19.0
 40
19.0
 40
19.0
 40
20.0
 40
20.0
 40
20.0
 40
21.0
 40
21.0
 40
21.0
 40
22.0
 40
22.0
 40
22.0
 40
23.0
 40
23.0
 40
23.0
 40
24.0
 40
24.0
 40
24.0
 40
25.0
 40
25.0
 40
25.0
 40
26.0
 40
26.0
 40
26.0
 40
27.0
 40
27.0
 40
27.0
 40
28.0
 40
28.0
 40
28.0
 40
29.0
 40
29.0
 40
29.0
 40
30.0
 40
30.0
 40
30.0
 40
31.0
 40
31.0
 40
31.0
 40
32.0
 40
32.0
 40
32.0
 40
33.0
 40
33.0
 40
33.0
 40
34.0
 40
34.0
 40
34.0
 40
35.0
 40
35.0
 40
35.0
 40
36.0
 40
36.0
 40
36.0
 40
37.0
 40
37.0
 40
37.0
 40
38.0
 40
38.0
 40
38.0
 40
38.0
 10
1162.874632771249
 20
28.89747169775322
 30
0.0
 10
1163.261689254274
 20
-88.21958285194324
 30
0.0
 10
1158.731560954201
 20
-272.1267035743991
 30
0.0
 10
1149.623934280685
 20
-407.2085530419054
 30
0.0
 10
1146.965698606037
 20
-446.6352593038695
 30
0.0
 10
1121.66250579661
 20
-470.8473903753418
 30
0.0
 10
1087.075125162962
 20
-472.3267143782604
 30
0.0
 10
1087.075125162962
 20
-472.3267143782604
 30
0.0
 10
1087.07581418206
 20
-472.3387722124587
 30
0.0
 10
1087.07581418206
 20
-472.3387722124587
 30
0.0
 10
1087.07581418206
 20
-472.3387722124587
 30
0.0
 10
270.1196511933732
 20
-506.1744330479704
 30
0.0
 10
270.1196511933732
 20
-506.1744330479704
 30
0.0
 10
270.1196511933732
 20
-506.1744330479704
 30
0.0
 10
247.1539556696437
 20
-507.1321695939004
 30
0.0
 10
247.1539556696437
 20
-507.1321695939004
 30
0.0
 10
237.4890847953238
 20
-507.1321695943348
 30
0.0
 10
229.6535596240232
 20
-514.9673502567895
 30
0.0
 10
229.653559624457
 20
-524.6322211311101
 30
0.0
 10
229.653559624457
 20
-524.6322211311101
 30
0.0
 10
229.7038580204026
 20
-566.0774088377607
 30
0.0
 10
229.7038580204026
 20
-566.0774088377607
 30
0.0
 10
229.7038580204026
 20
-566.0774088377607
 30
0.0
 10
407.8607698682245
 20
-566.0774088297619
 30
0.0
 10
407.8607698682245
 20
-566.0774088297619
 30
0.0
 10
407.8607698682245
 20
-566.0774088297619
 30
0.0
 10
407.8607698674185
 20
-548.1274278229647
 30
0.0
 10
407.8607698674185
 20
-548.1274278229647
 30
0.0
 10
407.8607698674185
 20
-548.1274278229647
 30
0.0
 10
588.410645039295
 20
-548.1274278148582
 30
0.0
 10
588.410645039295
 20
-548.1274278148582
 30
0.0
 10
588.410645039295
 20
-548.1274278148582
 30
0.0
 10
588.4106450401009
 20
-566.0774088216554
 30
0.0
 10
588.4106450401009
 20
-566.0774088216554
 30
0.0
 10
588.4106450401009
 20
-566.0774088216554
 30
0.0
 10
767.3103194745427
 20
-566.0774088136238
 30
0.0
 10
767.3103194745427
 20
-566.0774088136238
 30
0.0
 10
767.3103194745427
 20
-566.0774088136238
 30
0.0
 10
767.3103194737367
 20
-548.1274278068266
 30
0.0
 10
767.3103194737367
 20
-548.1274278068266
 30
0.0
 10
767.3103194737367
 20
-548.1274278068266
 30
0.0
 10
948.410720904156
 20
-548.1274277986956
 30
0.0
 10
948.410720904156
 20
-548.1274277986956
 30
0.0
 10
948.410720904156
 20
-548.1274277986956
 30
0.0
 10
948.4107209049621
 20
-566.0774088054928
 30
0.0
 10
948.4107209049621
 20
-566.0774088054928
 30
0.0
 10
948.4107209049621
 20
-566.0774088054928
 30
0.0
 10
1127.91035871816
 20
-566.0774087974338
 30
0.0
 10
1127.91035871816
 20
-566.0774087974338
 30
0.0
 10
1127.91035871816
 20
-566.0774087974338
 30
0.0
 10
1127.910358717352
 20
-548.0774739061011
 30
0.0
 10
1127.910358717352
 20
-548.0774739061011
 30
0.0
 10
1127.910358717352
 20
-548.0774739061011
 30
0.0
 10
1262.261675686803
 20
-548.0774739000691
 30
0.0
 10
1262.261675686803
 20
-548.0774739000691
 30
0.0
 10
1262.261675686803
 20
-548.0774739000691
 30
0.0
 10
1262.36158340407
 20
605.7725095354316
 30
0.0
 10
1262.36158340407
 20
605.7725095354316
 30
0.0
 10
1262.36158340407
 20
605.7725095354316
 30
0.0
 10
1128.010266434621
 20
605.7725095293996
 30
0.0
 10
1128.010266434621
 20
605.7725095293996
 30
0.0
 10
1128.010266434621
 20
605.7725095293996
 30
0.0
 10
1128.010266433812
 20
623.772444420733
 30
0.0
 10
1128.010266433812
 20
623.772444420733
 30
0.0
 10
1128.010266433812
 20
623.772444420733
 30
0.0
 10
948.5106286206142
 20
623.7724444126742
 30
0.0
 10
948.5106286206142
 20
623.7724444126742
 30
0.0
 10
948.5106286206142
 20
623.7724444126742
 30
0.0
 10
948.5106286214201
 20
605.822463405877
 30
0.0
 10
948.5106286214201
 20
605.822463405877
 30
0.0
 10
948.5106286214201
 20
605.822463405877
 30
0.0
 10
767.4102271910008
 20
605.822463397746
 30
0.0
 10
767.4102271910008
 20
605.822463397746
 30
0.0
 10
767.4102271910008
 20
605.822463397746
 30
0.0
 10
767.4102271901947
 20
623.7724444045432
 30
0.0
 10
767.4102271901947
 20
623.7724444045432
 30
0.0
 10
767.4102271901947
 20
623.7724444045432
 30
0.0
 10
588.510552755753
 20
623.7724443965114
 30
0.0
 10
588.510552755753
 20
623.7724443965114
 30
0.0
 10
588.510552755753
 20
623.7724443965114
 30
0.0
 10
588.510552756559
 20
605.8224633897141
 30
0.0
 10
588.510552756559
 20
605.8224633897141
 30
0.0
 10
588.510552756559
 20
605.8224633897141
 30
0.0
 10
407.9606775846826
 20
605.8224633816083
 30
0.0
 10
407.9606775846826
 20
605.8224633816083
 30
0.0
 10
407.9606775846826
 20
605.8224633816083
 30
0.0
 10
407.9606775838766
 20
623.7724443884055
 30
0.0
 10
407.9606775838766
 20
623.7724443884055
 30
0.0
 10
407.9606775838766
 20
623.7724443884055
 30
0.0
 10
229.8037657360547
 20
623.7724443804067
 30
0.0
 10
229.8037657360547
 20
623.7724443804067
 30
0.0
 10
229.8037657360547
 20
623.7724443804067
 30
0.0
 10
229.753467343831
 20
582.3272566737519
 30
0.0
 10
229.753467343831
 20
582.3272566737519
 30
0.0
 10
229.7534673442647
 20
572.662385799432
 30
0.0
 10
237.5889925162686
 20
564.8272051376799
 30
0.0
 10
247.2538633905885
 20
564.827205138114
 30
0.0
 10
247.2538633905885
 20
564.827205138114
 30
0.0
 10
270.219558914404
 20
563.8694685942454
 30
0.0
 10
270.219558914404
 20
563.8694685942454
 30
0.0
 10
270.219558914404
 20
563.8694685942454
 30
0.0
 10
1087.175721906128
 20
530.0338078320916
 30
0.0
 10
1087.175721906128
 20
530.0338078320916
 30
0.0
 10
1087.175721906128
 20
530.0338078320916
 30
0.0
 10
1087.175032887033
 20
530.0217499978928
 30
0.0
 10
1087.175032887033
 20
530.0217499978928
 30
0.0
 10
1121.762413520813
 20
528.5424259980795
 30
0.0
 10
1147.065606332415
 20
504.3302949288798
 30
0.0
 10
1149.723842010603
 20
464.9035886671544
 30
0.0
 10
1158.831468696249
 20
329.8217392004656
 30
0.0
 10
1163.361597012834
 20
145.9146184784166
 30
0.0
 10
1162.974540540325
 20
28.79756392868547
 30
0.0
 10
1162.974540540325
 20
28.79756392868547
 30
0.0
 10
1162.874632771249
 20
28.89747169775322
 30
0.0
 10
1162.874632771249
 20
28.89747169775322
 30
0.0
  0
ENDBLK
  5
93
330
90
100
AcDbEntity
  8
0
100
AcDbBlockEnd
  0
BLOCK
  5
97
330
95
100
AcDbEntity
  8
0
100
AcDbBlockBegin
  2
BLOCK_16
 70
     0
 10
0.0
 20
0.0
 30
0.0
  3
BLOCK_16
  1

  0
SPLINE
  5
99
330
95
100
AcDbEntity
  8
LAYER_1
 62
   250
100
AcDbSpline
210
0.0
220
0.0
230
1.0
 70
    11
 71
     3
 72
    17
 73
    13
 74
     0
 42
0.0000000001
 43
0.0000000001
 12
1.0
 22
0.0
 32
0.0
 13
1.0
 23
0.0
 33
0.0
 40
0.0
 40
0.0
 40
0.0
 40
0.0
 40
1.0
 40
1.0
 40
1.0
 40
2.0
 40
2.0
 40
2.0
 40
3.0
 40
3.0
 40
3.0
 40
4.0
 40
4.0
 40
4.0
 40
4.0
 10
-931.4343894559754
 20
-557.1523821813785
 30
0.0
 10
-931.4343894557492
 20
-558.8341055425032
 30
0.0
 10
-932.8024368727574
 20
-560.2023252146549
 30
0.0
 10
-934.4843324886564
 20
-560.2023252148808
 30
0.0
 10
-936.1662281045553
 20
-560.202325215108
 30
0.0
 10
-937.5342755219326
 20
-558.8341055433252
 30
0.0
 10
-937.5342755221587
 20
-557.1523821822005
 30
0.0
 10
-937.5342755223853
 20
-555.4706588210759
 30
0.0
 10
-936.1662281053771
 20
-554.1024391489246
 30
0.0
 10
-934.4843324894781
 20
-554.1024391486975
 30
0.0
 10
-932.8024368735792
 20
-554.1024391484716
 30
0.0
 10
-931.4343894562019
 20
-555.4706588202538
 30
0.0
 10
-931.4343894559754
 20
-557.1523821813785
 30
0.0
  0
ENDBLK
  5
98
330
95
100
AcDbEntity
  8
0
100
AcDbBlockEnd
  0
BLOCK
  5
9C
330
9A
100
AcDbEntity
  8
0
100
AcDbBlockBegin
  2
BLOCK_17
 70
     0
 10
0.0
 20
0.0
 30
0.0
  3
BLOCK_17
  1

  0
SPLINE
  5
9E
330
9A
100
AcDbEntity
  8
LAYER_1
 62
   250
100
AcDbSpline
210
0.0
220
0.0
230
1.0
 70
    11
 71
     3
 72
    17
 73
    13
 74
     0
 42
0.0000000001
 43
0.0000000001
 12
1.0
 22
0.0
 32
0.0
 13
1.0
 23
0.0
 33
0.0
 40
0.0
 40
0.0
 40
0.0
 40
0.0
 40
1.0
 40
1.0
 40
1.0
 40
2.0
 40
2.0
 40
2.0
 40
3.0
 40
3.0
 40
3.0
 40
4.0
 40
4.0
 40
4.0
 40
4.0
 10
-937.4343677530865
 20
-557.152382182187
 30
0.0
 10
-937.434367752867
 20
-558.7789840155477
 30
0.0
 10
-936.1111065768048
 20
-560.1024174460281
 30
0.0
 10
-934.4843324886699
 20
-560.1024174458087
 30
0.0
 10
-932.8575584005349
 20
-560.1024174455898
 30
0.0
 10
-931.5342972248282
 20
-558.7789840147527
 30
0.0
 10
-931.5342972250477
 20
-557.152382181392
 30
0.0
 10
-931.5342972252668
 20
-555.5257803480313
 30
0.0
 10
-932.8575584013296
 20
-554.2023469175509
 30
0.0
 10
-934.4843324894646
 20
-554.2023469177698
 30
0.0
 10
-936.1111065775996
 20
-554.2023469179892
 30
0.0
 10
-937.4343677533057
 20
-555.5257803488263
 30
0.0
 10
-937.4343677530865
 20
-557.152382182187
 30
0.0
  0
ENDBLK
  5
9D
330
9A
100
AcDbEntity
  8
0
100
AcDbBlockEnd
  0
BLOCK
  5
A1
330
9F
100
AcDbEntity
  8
0
100
AcDbBlockBegin
  2
BLOCK_18
 70
     0
 10
0.0
 20
0.0
 30
0.0
  3
BLOCK_18
  1

  0
SPLINE
  5
A3
330
9F
100
AcDbEntity
  8
LAYER_1
 62
   250
100
AcDbSpline
210
0.0
220
0.0
230
1.0
 70
    11
 71
     3
 72
    17
 73
    13
 74
     0
 42
0.0000000001
 43
0.0000000001
 12
1.0
 22
0.0
 32
0.0
 13
1.0
 23
0.0
 33
0.0
 40
0.0
 40
0.0
 40
0.0
 40
0.0
 40
1.0
 40
1.0
 40
1.0
 40
2.0
 40
2.0
 40
2.0
 40
3.0
 40
3.0
 40
3.0
 40
4.0
 40
4.0
 40
4.0
 40
4.0
 10
-571.4343135911142
 20
-557.1523821328905
 30
0.0
 10
-571.4343135908881
 20
-558.8341054940151
 30
0.0
 10
-572.8027055174448
 20
-560.2023251661669
 30
0.0
 10
-574.4846011333439
 20
-560.2023251663928
 30
0.0
 10
-576.1664967492428
 20
-560.2023251666193
 30
0.0
 10
-577.53454416662
 20
-558.8341054948365
 30
0.0
 10
-577.5345441668462
 20
-557.1523821337119
 30
0.0
 10
-577.5345441670727
 20
-555.4706587725871
 30
0.0
 10
-576.1664967500644
 20
-554.102439100436
 30
0.0
 10
-574.4846011341655
 20
-554.1024391002094
 30
0.0
 10
-572.8027055182665
 20
-554.1024390999836
 30
0.0
 10
-571.4343135913408
 20
-555.4706587717657
 30
0.0
 10
-571.4343135911142
 20
-557.1523821328905
 30
0.0
  0
ENDBLK
  5
A2
330
9F
100
AcDbEntity
  8
0
100
AcDbBlockEnd
  0
BLOCK
  5
A6
330
A4
100
AcDbEntity
  8
0
100
AcDbBlockBegin
  2
BLOCK_19
 70
     0
 10
0.0
 20
0.0
 30
0.0
  3
BLOCK_19
  1

  0
SPLINE
  5
A8
330
A4
100
AcDbEntity
  8
LAYER_1
 62
   250
100
AcDbSpline
210
0.0
220
0.0
230
1.0
 70
    11
 71
     3
 72
    17
 73
    13
 74
     0
 42
0.0000000001
 43
0.0000000001
 12
1.0
 22
0.0
 32
0.0
 13
1.0
 23
0.0
 33
0.0
 40
0.0
 40
0.0
 40
0.0
 40
0.0
 40
1.0
 40
1.0
 40
1.0
 40
2.0
 40
2.0
 40
2.0
 40
3.0
 40
3.0
 40
3.0
 40
4.0
 40
4.0
 40
4.0
 40
4.0
 10
-577.4346363977739
 20
-557.152382133699
 30
0.0
 10
-577.4346363975544
 20
-558.7789839670597
 30
0.0
 10
-576.1113752214923
 20
-560.10241739754
 30
0.0
 10
-574.4846011333573
 20
-560.1024173973206
 30
0.0
 10
-572.8578270452223
 20
-560.1024173971011
 30
0.0
 10
-571.5342213599671
 20
-558.7789839662646
 30
0.0
 10
-571.5342213601865
 20
-557.1523821329039
 30
0.0
 10
-571.5342213604057
 20
-555.5257802995432
 30
0.0
 10
-572.8578270460171
 20
-554.2023468690622
 30
0.0
 10
-574.4846011341521
 20
-554.2023468692817
 30
0.0
 10
-576.111375222287
 20
-554.2023468695012
 30
0.0
 10
-577.434636397993
 20
-555.5257803003383
 30
0.0
 10
-577.4346363977739
 20
-557.152382133699
 30
0.0
  0
ENDBLK
  5
A7
330
A4
100
AcDbEntity
  8
0
100
AcDbBlockEnd
  0
BLOCK
  5
AB
330
A9
100
AcDbEntity
  8
0
100
AcDbBlockBegin
  2
BLOCK_20
 70
     0
 10
0.0
 20
0.0
 30
0.0
  3
BLOCK_20
  1

  0
SPLINE
  5
AD
330
A9
100
AcDbEntity
  8
LAYER_1
 62
   250
100
AcDbSpline
210
0.0
220
0.0
230
1.0
 70
    11
 71
     3
 72
    17
 73
    13
 74
     0
 42
0.0000000001
 43
0.0000000001
 12
1.0
 22
0.0
 32
0.0
 13
1.0
 23
0.0
 33
0.0
 40
0.0
 40
0.0
 40
0.0
 40
0.0
 40
1.0
 40
1.0
 40
1.0
 40
2.0
 40
2.0
 40
2.0
 40
3.0
 40
3.0
 40
3.0
 40
4.0
 40
4.0
 40
4.0
 40
4.0
 10
-212.0812266583831
 20
-557.1523820844897
 30
0.0
 10
-212.0812266581569
 20
-558.8341054456143
 30
0.0
 10
-213.4492740751651
 20
-560.2023251177649
 30
0.0
 10
-215.1311696910641
 20
-560.202325117992
 30
0.0
 10
-216.8130653069631
 20
-560.2023251182179
 30
0.0
 10
-218.1811127243403
 20
-558.8341054464357
 30
0.0
 10
-218.1811127245664
 20
-557.152382085311
 30
0.0
 10
-218.181112724793
 20
-555.4706587241863
 30
0.0
 10
-216.8130653077848
 20
-554.1024390520345
 30
0.0
 10
-215.1311696918858
 20
-554.1024390518087
 30
0.0
 10
-213.4492740759868
 20
-554.1024390515814
 30
0.0
 10
-212.0812266586096
 20
-555.470658723365
 30
0.0
 10
-212.0812266583831
 20
-557.1523820844897
 30
0.0
  0
ENDBLK
  5
AC
330
A9
100
AcDbEntity
  8
0
100
AcDbBlockEnd
  0
BLOCK
  5
B0
330
AE
100
AcDbEntity
  8
0
100
AcDbBlockBegin
  2
BLOCK_21
 70
     0
 10
0.0
 20
0.0
 30
0.0
  3
BLOCK_21
  1

  0
SPLINE
  5
B2
330
AE
100
AcDbEntity
  8
LAYER_1
 62
   250
100
AcDbSpline
210
0.0
220
0.0
230
1.0
 70
    11
 71
     3
 72
    17
 73
    13
 74
     0
 42
0.0000000001
 43
0.0000000001
 12
1.0
 22
0.0
 32
0.0
 13
1.0
 23
0.0
 33
0.0
 40
0.0
 40
0.0
 40
0.0
 40
0.0
 40
1.0
 40
1.0
 40
1.0
 40
2.0
 40
2.0
 40
2.0
 40
3.0
 40
3.0
 40
3.0
 40
4.0
 40
4.0
 40
4.0
 40
4.0
 10
-218.0812049554942
 20
-557.152382085297
 30
0.0
 10
-218.0812049552754
 20
-558.7789839186576
 30
0.0
 10
-216.7579437792126
 20
-560.1024173491386
 30
0.0
 10
-215.1311696910776
 20
-560.1024173489197
 30
0.0
 10
-213.5043956029426
 20
-560.1024173487003
 30
0.0
 10
-212.1811344272365
 20
-558.7789839178632
 30
0.0
 10
-212.1811344274553
 20
-557.1523820845025
 30
0.0
 10
-212.1811344276745
 20
-555.5257802511418
 30
0.0
 10
-213.5043956037374
 20
-554.2023468206614
 30
0.0
 10
-215.1311696918723
 20
-554.2023468208808
 30
0.0
 10
-216.7579437800073
 20
-554.2023468210997
 30
0.0
 10
-218.0812049557134
 20
-555.5257802519362
 30
0.0
 10
-218.0812049554942
 20
-557.152382085297
 30
0.0
  0
ENDBLK
  5
B1
330
AE
100
AcDbEntity
  8
0
100
AcDbBlockEnd
  0
BLOCK
  5
B5
330
B3
100
AcDbEntity
  8
0
100
AcDbBlockBegin
  2
BLOCK_22
 70
     0
 10
0.0
 20
0.0
 30
0.0
  3
BLOCK_22
  1

  0
SPLINE
  5
B7
330
B3
100
AcDbEntity
  8
LAYER_1
 62
   250
100
AcDbSpline
210
0.0
220
0.0
230
1.0
 70
    11
 71
     3
 72
    17
 73
    13
 74
     0
 42
0.0000000001
 43
0.0000000001
 12
1.0
 22
0.0
 32
0.0
 13
1.0
 23
0.0
 33
0.0
 40
0.0
 40
0.0
 40
0.0
 40
0.0
 40
1.0
 40
1.0
 40
1.0
 40
2.0
 40
2.0
 40
2.0
 40
3.0
 40
3.0
 40
3.0
 40
4.0
 40
4.0
 40
4.0
 40
4.0
 10
-212.0812268162398
 20
614.8475701507235
 30
0.0
 10
-212.0812268160133
 20
613.1656745348232
 30
0.0
 10
-213.4492742330215
 20
611.7976271174467
 30
0.0
 10
-215.1311698489205
 20
611.7976271172199
 30
0.0
 10
-216.8130654648194
 20
611.797627116994
 30
0.0
 10
-218.1811128821966
 20
613.1656745340022
 30
0.0
 10
-218.1811128824232
 20
614.8475701499018
 30
0.0
 10
-218.1811128826493
 20
616.5294657658002
 30
0.0
 10
-216.8130654656411
 20
617.8975131831774
 30
0.0
 10
-215.1311698497422
 20
617.8975131834032
 30
0.0
 10
-213.4492742338432
 20
617.89751318363
 30
0.0
 10
-212.081226816466
 20
616.5294657666212
 30
0.0
 10
-212.0812268162398
 20
614.8475701507235
 30
0.0
  0
ENDBLK
  5
B6
330
B3
100
AcDbEntity
  8
0
100
AcDbBlockEnd
  0
BLOCK
  5
BA
330
B8
100
AcDbEntity
  8
0
100
AcDbBlockBegin
  2
BLOCK_23
 70
     0
 10
0.0
 20
0.0
 30
0.0
  3
BLOCK_23
  1

  0
SPLINE
  5
BC
330
B8
100
AcDbEntity
  8
LAYER_1
 62
   250
100
AcDbSpline
210
0.0
220
0.0
230
1.0
 70
    11
 71
     3
 72
    17
 73
    13
 74
     0
 42
0.0000000001
 43
0.0000000001
 12
1.0
 22
0.0
 32
0.0
 13
1.0
 23
0.0
 33
0.0
 40
0.0
 40
0.0
 40
0.0
 40
0.0
 40
1.0
 40
1.0
 40
1.0
 40
2.0
 40
2.0
 40
2.0
 40
3.0
 40
3.0
 40
3.0
 40
4.0
 40
4.0
 40
4.0
 40
4.0
 10
-218.0812051133509
 20
614.8475701499153
 30
0.0
 10
-218.0812051131317
 20
613.2207960617797
 30
0.0
 10
-216.7579439370689
 20
611.8975348860736
 30
0.0
 10
-215.1311698489339
 20
611.8975348862921
 30
0.0
 10
-213.504395760799
 20
611.8975348865116
 30
0.0
 10
-212.1811345850929
 20
613.2207960625744
 30
0.0
 10
-212.181134585312
 20
614.8475701507094
 30
0.0
 10
-212.1811345855315
 20
616.4743442388444
 30
0.0
 10
-213.5043957615937
 20
617.7976054145504
 30
0.0
 10
-215.1311698497287
 20
617.797605414331
 30
0.0
 10
-216.7579439378636
 20
617.7976054141125
 30
0.0
 10
-218.0812051135703
 20
616.4743442380496
 30
0.0
 10
-218.0812051133509
 20
614.8475701499153
 30
0.0
  0
ENDBLK
  5
BB
330
B8
100
AcDbEntity
  8
0
100
AcDbBlockEnd
  0
BLOCK
  5
BF
330
BD
100
AcDbEntity
  8
0
100
AcDbBlockBegin
  2
BLOCK_24
 70
     0
 10
0.0
 20
0.0
 30
0.0
  3
BLOCK_24
  1

  0
SPLINE
  5
C1
330
BD
100
AcDbEntity
  8
LAYER_1
 62
   250
100
AcDbSpline
210
0.0
220
0.0
230
1.0
 70
    11
 71
     3
 72
    17
 73
    13
 74
     0
 42
0.0000000001
 43
0.0000000001
 12
1.0
 22
0.0
 32
0.0
 13
1.0
 23
0.0
 33
0.0
 40
0.0
 40
0.0
 40
0.0
 40
0.0
 40
1.0
 40
1.0
 40
1.0
 40
2.0
 40
2.0
 40
2.0
 40
3.0
 40
3.0
 40
3.0
 40
4.0
 40
4.0
 40
4.0
 40
4.0
 10
-571.434313748971
 20
614.8475701023224
 30
0.0
 10
-571.4343137487444
 20
613.1656744864222
 30
0.0
 10
-572.8027056753012
 20
611.7976270690456
 30
0.0
 10
-574.4846012912002
 20
611.7976270688191
 30
0.0
 10
-576.1664969070991
 20
611.7976270685922
 30
0.0
 10
-577.5345443244763
 20
613.1656744856011
 30
0.0
 10
-577.5345443247029
 20
614.8475701015001
 30
0.0
 10
-577.534544324929
 20
616.529465717399
 30
0.0
 10
-576.1664969079209
 20
617.8975131347756
 30
0.0
 10
-574.4846012920218
 20
617.8975131350024
 30
0.0
 10
-572.8027056761229
 20
617.8975131352289
 30
0.0
 10
-571.4343137491971
 20
616.5294657182201
 30
0.0
 10
-571.434313748971
 20
614.8475701023224
 30
0.0
  0
ENDBLK
  5
C0
330
BD
100
AcDbEntity
  8
0
100
AcDbBlockEnd
  0
BLOCK
  5
C4
330
C2
100
AcDbEntity
  8
0
100
AcDbBlockBegin
  2
BLOCK_25
 70
     0
 10
0.0
 20
0.0
 30
0.0
  3
BLOCK_25
  1

  0
SPLINE
  5
C6
330
C2
100
AcDbEntity
  8
LAYER_1
 62
   250
100
AcDbSpline
210
0.0
220
0.0
230
1.0
 70
    11
 71
     3
 72
    17
 73
    13
 74
     0
 42
0.0000000001
 43
0.0000000001
 12
1.0
 22
0.0
 32
0.0
 13
1.0
 23
0.0
 33
0.0
 40
0.0
 40
0.0
 40
0.0
 40
0.0
 40
1.0
 40
1.0
 40
1.0
 40
2.0
 40
2.0
 40
2.0
 40
3.0
 40
3.0
 40
3.0
 40
4.0
 40
4.0
 40
4.0
 40
4.0
 10
-577.4346365556306
 20
614.8475701015142
 30
0.0
 10
-577.4346365554114
 20
613.2207960133779
 30
0.0
 10
-576.1113753793486
 20
611.8975348376719
 30
0.0
 10
-574.4846012912136
 20
611.8975348378913
 30
0.0
 10
-572.8578272030786
 20
611.8975348381105
 30
0.0
 10
-571.5342215178241
 20
613.2207960141736
 30
0.0
 10
-571.5342215180432
 20
614.8475701023086
 30
0.0
 10
-571.5342215182627
 20
616.4743441904436
 30
0.0
 10
-572.8578272038734
 20
617.7976053661494
 30
0.0
 10
-574.4846012920084
 20
617.7976053659302
 30
0.0
 10
-576.1113753801434
 20
617.7976053657108
 30
0.0
 10
-577.43463655585
 20
616.4743441896479
 30
0.0
 10
-577.4346365556306
 20
614.8475701015142
 30
0.0
  0
ENDBLK
  5
C5
330
C2
100
AcDbEntity
  8
0
100
AcDbBlockEnd
  0
BLOCK
  5
C9
330
C7
100
AcDbEntity
  8
0
100
AcDbBlockBegin
  2
BLOCK_26
 70
     0
 10
0.0
 20
0.0
 30
0.0
  3
BLOCK_26
  1

  0
SPLINE
  5
CB
330
C7
100
AcDbEntity
  8
LAYER_1
 62
   250
100
AcDbSpline
210
0.0
220
0.0
230
1.0
 70
    11
 71
     3
 72
    17
 73
    13
 74
     0
 42
0.0000000001
 43
0.0000000001
 12
1.0
 22
0.0
 32
0.0
 13
1.0
 23
0.0
 33
0.0
 40
0.0
 40
0.0
 40
0.0
 40
0.0
 40
1.0
 40
1.0
 40
1.0
 40
2.0
 40
2.0
 40
2.0
 40
3.0
 40
3.0
 40
3.0
 40
4.0
 40
4.0
 40
4.0
 40
4.0
 10
-931.4343896138321
 20
614.847570053834
 30
0.0
 10
-931.4343896136055
 20
613.1656744379344
 30
0.0
 10
-932.8024370306138
 20
611.7976270205569
 30
0.0
 10
-934.4843326465127
 20
611.797627020331
 30
0.0
 10
-936.1662282624117
 20
611.7976270201042
 30
0.0
 10
-937.534275679789
 20
613.1656744371124
 30
0.0
 10
-937.5342756800154
 20
614.847570053012
 30
0.0
 10
-937.5342756802423
 20
616.5294656689103
 30
0.0
 10
-936.1662282632334
 20
617.8975130862875
 30
0.0
 10
-934.4843326473344
 20
617.8975130865143
 30
0.0
 10
-932.8024370314355
 20
617.8975130867402
 30
0.0
 10
-931.4343896140589
 20
616.5294656697323
 30
0.0
 10
-931.4343896138321
 20
614.847570053834
 30
0.0
  0
ENDBLK
  5
CA
330
C7
100
AcDbEntity
  8
0
100
AcDbBlockEnd
  0
BLOCK
  5
CE
330
CC
100
AcDbEntity
  8
0
100
AcDbBlockBegin
  2
BLOCK_27
 70
     0
 10
0.0
 20
0.0
 30
0.0
  3
BLOCK_27
  1

  0
SPLINE
  5
D0
330
CC
100
AcDbEntity
  8
LAYER_1
 62
   250
100
AcDbSpline
210
0.0
220
0.0
230
1.0
 70
    11
 71
     3
 72
    17
 73
    13
 74
     0
 42
0.0000000001
 43
0.0000000001
 12
1.0
 22
0.0
 32
0.0
 13
1.0
 23
0.0
 33
0.0
 40
0.0
 40
0.0
 40
0.0
 40
0.0
 40
1.0
 40
1.0
 40
1.0
 40
2.0
 40
2.0
 40
2.0
 40
3.0
 40
3.0
 40
3.0
 40
4.0
 40
4.0
 40
4.0
 40
4.0
 10
-937.4343679109431
 20
614.8475700530255
 30
0.0
 10
-937.4343679107241
 20
613.2207959648898
 30
0.0
 10
-936.1111067346616
 20
611.8975347891837
 30
0.0
 10
-934.4843326465266
 20
611.8975347894033
 30
0.0
 10
-932.8575585583916
 20
611.8975347896218
 30
0.0
 10
-931.5342973826852
 20
613.2207959656849
 30
0.0
 10
-931.5342973829044
 20
614.8475700538205
 30
0.0
 10
-931.5342973831238
 20
616.4743441419549
 30
0.0
 10
-932.857558559186
 20
617.7976053176607
 30
0.0
 10
-934.484332647321
 20
617.7976053174422
 30
0.0
 10
-936.1111067354559
 20
617.7976053172226
 30
0.0
 10
-937.4343679111627
 20
616.4743441411598
 30
0.0
 10
-937.4343679109431
 20
614.8475700530255
 30
0.0
  0
ENDBLK
  5
CF
330
CC
100
AcDbEntity
  8
0
100
AcDbBlockEnd
  0
BLOCK
  5
D3
330
D1
100
AcDbEntity
  8
0
100
AcDbBlockBegin
  2
BLOCK_28
 70
     0
 10
0.0
 20
0.0
 30
0.0
  3
BLOCK_28
  1

  0
SPLINE
  5
D5
330
D1
100
AcDbEntity
  8
LAYER_1
 62
   250
100
AcDbSpline
210
0.0
220
0.0
230
1.0
 70
    11
 71
     3
 72
   119
 73
   115
 74
     0
 42
0.0000000001
 43
0.0000000001
 12
1.0
 22
0.0
 32
0.0
 13
1.0
 23
0.0
 33
0.0
 40
0.0
 40
0.0
 40
0.0
 40
0.0
 40
1.0
 40
1.0
 40
1.0
 40
2.0
 40
2.0
 40
2.0
 40
3.0
 40
3.0
 40
3.0
 40
4.0
 40
4.0
 40
4.0
 40
5.0
 40
5.0
 40
5.0
 40
6.0
 40
6.0
 40
6.0
 40
7.0
 40
7.0
 40
7.0
 40
8.0
 40
8.0
 40
8.0
 40
9.0
 40
9.0
 40
9.0
 40
10.0
 40
10.0
 40
10.0
 40
11.0
 40
11.0
 40
11.0
 40
12.0
 40
12.0
 40
12.0
 40
13.0
 40
13.0
 40
13.0
 40
14.0
 40
14.0
 40
14.0
 40
15.0
 40
15.0
 40
15.0
 40
16.0
 40
16.0
 40
16.0
 40
17.0
 40
17.0
 40
17.0
 40
18.0
 40
18.0
 40
18.0
 40
19.0
 40
19.0
 40
19.0
 40
20.0
 40
20.0
 40
20.0
 40
21.0
 40
21.0
 40
21.0
 40
22.0
 40
22.0
 40
22.0
 40
23.0
 40
23.0
 40
23.0
 40
24.0
 40
24.0
 40
24.0
 40
25.0
 40
25.0
 40
25.0
 40
26.0
 40
26.0
 40
26.0
 40
27.0
 40
27.0
 40
27.0
 40
28.0
 40
28.0
 40
28.0
 40
29.0
 40
29.0
 40
29.0
 40
30.0
 40
30.0
 40
30.0
 40
31.0
 40
31.0
 40
31.0
 40
32.0
 40
32.0
 40
32.0
 40
33.0
 40
33.0
 40
33.0
 40
34.0
 40
34.0
 40
34.0
 40
35.0
 40
35.0
 40
35.0
 40
36.0
 40
36.0
 40
36.0
 40
37.0
 40
37.0
 40
37.0
 40
38.0
 40
38.0
 40
38.0
 40
38.0
 10
-1059.454310021556
 20
28.79755390706109
 30
0.0
 10
-1059.841366515097
 20
145.9146084567229
 30
0.0
 10
-1055.311238231538
 20
329.8217291795849
 30
0.0
 10
-1046.203611570152
 20
464.9035786479095
 30
0.0
 10
-1043.545375899044
 20
504.3302849101123
 30
0.0
 10
-1018.242183091791
 20
528.5424159838568
 30
0.0
 10
-983.6548024582754
 20
530.0217399898809
 30
0.0
 10
-983.6548024582754
 20
530.0217399898809
 30
0.0
 10
-983.6554914773741
 20
530.0337978240789
 30
0.0
 10
-983.6554914773741
 20
530.0337978240789
 30
0.0
 10
-983.6554914773741
 20
530.0337978240789
 30
0.0
 10
-166.699328491726
 20
563.8694587329477
 30
0.0
 10
-166.699328491726
 20
563.8694587329477
 30
0.0
 10
-166.699328491726
 20
563.8694587329477
 30
0.0
 10
-143.7336329680825
 20
564.82719528094
 30
0.0
 10
-143.7336329680825
 20
564.82719528094
 30
0.0
 10
-134.0687620937626
 20
564.8271952822421
 30
0.0
 10
-126.2332369231654
 20
572.6623759454008
 30
0.0
 10
-126.2332369244671
 20
582.3272468197213
 30
0.0
 10
-126.2332369244671
 20
582.3272468197213
 30
0.0
 10
-126.2835353241341
 20
623.7724345263674
 30
0.0
 10
-126.2835353241341
 20
623.7724345263674
 30
0.0
 10
-126.2835353241341
 20
623.7724345263674
 30
0.0
 10
-304.4404471719561
 20
623.7724345023711
 30
0.0
 10
-304.4404471719561
 20
623.7724345023711
 30
0.0
 10
-304.4404471719561
 20
623.7724345023711
 30
0.0
 10
-304.4404471695385
 20
605.8224534955739
 30
0.0
 10
-304.4404471695385
 20
605.8224534955739
 30
0.0
 10
-304.4404471695385
 20
605.8224534955739
 30
0.0
 10
-484.9903223414149
 20
605.8224534712555
 30
0.0
 10
-484.9903223414149
 20
605.8224534712555
 30
0.0
 10
-484.9903223414149
 20
605.8224534712555
 30
0.0
 10
-484.9903223438325
 20
623.7724344780527
 30
0.0
 10
-484.9903223438325
 20
623.7724344780527
 30
0.0
 10
-484.9903223438325
 20
623.7724344780527
 30
0.0
 10
-663.8899967782743
 20
623.7724344539569
 30
0.0
 10
-663.8899967782743
 20
623.7724344539569
 30
0.0
 10
-663.8899967782743
 20
623.7724344539569
 30
0.0
 10
-663.8899967758566
 20
605.8224534471597
 30
0.0
 10
-663.8899967758566
 20
605.8224534471597
 30
0.0
 10
-663.8899967758566
 20
605.8224534471597
 30
0.0
 10
-844.9903982062759
 20
605.8224534227674
 30
0.0
 10
-844.9903982062759
 20
605.8224534227674
 30
0.0
 10
-844.9903982062759
 20
605.8224534227674
 30
0.0
 10
-844.9903982086936
 20
623.7724344295646
 30
0.0
 10
-844.9903982086936
 20
623.7724344295646
 30
0.0
 10
-844.9903982086936
 20
623.7724344295646
 30
0.0
 10
-1024.490036021892
 20
623.7724344053873
 30
0.0
 10
-1024.490036021892
 20
623.7724344053873
 30
0.0
 10
-1024.490036021892
 20
623.7724344053873
 30
0.0
 10
-1024.490036019467
 20
605.7724995140546
 30
0.0
 10
-1024.490036019467
 20
605.7724995140546
 30
0.0
 10
-1024.490036019467
 20
605.7724995140546
 30
0.0
 10
-1158.841352988918
 20
605.772499495959
 30
0.0
 10
-1158.841352988918
 20
605.772499495959
 30
0.0
 10
-1158.841352988918
 20
605.772499495959
 30
0.0
 10
-1158.941260602578
 20
-548.0774839395507
 30
0.0
 10
-1158.941260602578
 20
-548.0774839395507
 30
0.0
 10
-1158.941260602578
 20
-548.0774839395507
 30
0.0
 10
-1024.589943633128
 20
-548.0774839214548
 30
0.0
 10
-1024.589943633128
 20
-548.0774839214548
 30
0.0
 10
-1024.589943633128
 20
-548.0774839214548
 30
0.0
 10
-1024.589943630703
 20
-566.0774188127881
 30
0.0
 10
-1024.589943630703
 20
-566.0774188127881
 30
0.0
 10
-1024.589943630703
 20
-566.0774188127881
 30
0.0
 10
-845.0903058175054
 20
-566.0774187886115
 30
0.0
 10
-845.0903058175054
 20
-566.0774187886115
 30
0.0
 10
-845.0903058175054
 20
-566.0774187886115
 30
0.0
 10
-845.090305819923
 20
-548.1274377818143
 30
0.0
 10
-845.090305819923
 20
-548.1274377818143
 30
0.0
 10
-845.090305819923
 20
-548.1274377818143
 30
0.0
 10
-663.9899043895036
 20
-548.127437757422
 30
0.0
 10
-663.9899043895036
 20
-548.127437757422
 30
0.0
 10
-663.9899043895036
 20
-548.127437757422
 30
0.0
 10
-663.989904387086
 20
-566.0774187642193
 30
0.0
 10
-663.989904387086
 20
-566.0774187642193
 30
0.0
 10
-663.989904387086
 20
-566.0774187642193
 30
0.0
 10
-485.0902299526442
 20
-566.0774187401234
 30
0.0
 10
-485.0902299526442
 20
-566.0774187401234
 30
0.0
 10
-485.0902299526442
 20
-566.0774187401234
 30
0.0
 10
-485.0902299550618
 20
-548.1274377333261
 30
0.0
 10
-485.0902299550618
 20
-548.1274377333261
 30
0.0
 10
-485.0902299550618
 20
-548.1274377333261
 30
0.0
 10
-304.5403547831854
 20
-548.1274377090077
 30
0.0
 10
-304.5403547831854
 20
-548.1274377090077
 30
0.0
 10
-304.5403547831854
 20
-548.1274377090077
 30
0.0
 10
-304.5403547807678
 20
-566.0774187158049
 30
0.0
 10
-304.5403547807678
 20
-566.0774187158049
 30
0.0
 10
-304.5403547807678
 20
-566.0774187158049
 30
0.0
 10
-126.3834429329459
 20
-566.0774186918093
 30
0.0
 10
-126.3834429329459
 20
-566.0774186918093
 30
0.0
 10
-126.3834429329459
 20
-566.0774186918093
 30
0.0
 10
-126.3331445444437
 20
-524.6322309851496
 30
0.0
 10
-126.3331445444437
 20
-524.6322309851496
 30
0.0
 10
-126.3331445457451
 20
-514.9673601108296
 30
0.0
 10
-134.1686697184526
 20
-507.1321794497816
 30
0.0
 10
-143.8335405927725
 20
-507.1321794510829
 30
0.0
 10
-143.8335405927725
 20
-507.1321794510829
 30
0.0
 10
-166.7992361166739
 20
-506.1744429092772
 30
0.0
 10
-166.7992361166739
 20
-506.1744429092772
 30
0.0
 10
-166.7992361166739
 20
-506.1744429092772
 30
0.0
 10
-983.7553991114368
 20
-472.3387822204797
 30
0.0
 10
-983.7553991114368
 20
-472.3387822204797
 30
0.0
 10
-983.7553991114368
 20
-472.3387822204797
 30
0.0
 10
-983.754710092342
 20
-472.3267243862813
 30
0.0
 10
-983.754710092342
 20
-472.3267243862813
 30
0.0
 10
-1018.342090726255
 20
-470.8474003895738
 30
0.0
 10
-1043.645283540031
 20
-446.635269322646
 30
0.0
 10
-1046.30351922176
 20
-407.2085630611593
 30
0.0
 10
-1055.411145919534
 20
-272.126713595288
 30
0.0
 10
-1059.941274252634
 20
-88.21959287364591
 30
0.0
 10
-1059.554217790641
 20
28.89746167611986
 30
0.0
 10
-1059.554217790641
 20
28.89746167611986
 30
0.0
 10
-1059.454310021556
 20
28.79755390706109
 30
0.0
 10
-1059.454310021556
 20
28.79755390706109
 30
0.0
  0
ENDBLK
  5
D4
330
D1
100
AcDbEntity
  8
0
100
AcDbBlockEnd
  0
BLOCK
  5
D8
330
D6
100
AcDbEntity
  8
0
100
AcDbBlockBegin
  2
BLOCK_29
 70
     0
 10
0.0
 20
0.0
 30
0.0
  3
BLOCK_29
  1

  0
SPLINE
  5
DA
330
D6
100
AcDbEntity
  8
LAYER_1
 62
   250
100
AcDbSpline
210
0.0
220
0.0
230
1.0
 70
    11
 71
     3
 72
   167
 73
   163
 74
     0
 42
0.0000000001
 43
0.0000000001
 12
1.0
 22
0.0
 32
0.0
 13
1.0
 23
0.0
 33
0.0
 40
0.0
 40
0.0
 40
0.0
 40
0.0
 40
1.0
 40
1.0
 40
1.0
 40
2.0
 40
2.0
 40
2.0
 40
3.0
 40
3.0
 40
3.0
 40
4.0
 40
4.0
 40
4.0
 40
5.0
 40
5.0
 40
5.0
 40
6.0
 40
6.0
 40
6.0
 40
7.0
 40
7.0
 40
7.0
 40
8.0
 40
8.0
 40
8.0
 40
9.0
 40
9.0
 40
9.0
 40
10.0
 40
10.0
 40
10.0
 40
11.0
 40
11.0
 40
11.0
 40
12.0
 40
12.0
 40
12.0
 40
13.0
 40
13.0
 40
13.0
 40
14.0
 40
14.0
 40
14.0
 40
15.0
 40
15.0
 40
15.0
 40
16.0
 40
16.0
 40
16.0
 40
17.0
 40
17.0
 40
17.0
 40
18.0
 40
18.0
 40
18.0
 40
19.0
 40
19.0
 40
19.0
 40
20.0
 40
20.0
 40
20.0
 40
21.0
 40
21.0
 40
21.0
 40
22.0
 40
22.0
 40
22.0
 40
23.0
 40
23.0
 40
23.0
 40
24.0
 40
24.0
 40
24.0
 40
25.0
 40
25.0
 40
25.0
 40
26.0
 40
26.0
 40
26.0
 40
27.0
 40
27.0
 40
27.0
 40
28.0
 40
28.0
 40
28.0
 40
29.0
 40
29.0
 40
29.0
 40
30.0
 40
30.0
 40
30.0
 40
31.0
 40
31.0
 40
31.0
 40
32.0
 40
32.0
 40
32.0
 40
33.0
 40
33.0
 40
33.0
 40
34.0
 40
34.0
 40
34.0
 40
35.0
 40
35.0
 40
35.0
 40
36.0
 40
36.0
 40
36.0
 40
37.0
 40
37.0
 40
37.0
 40
38.0
 40
38.0
 40
38.0
 40
39.0
 40
39.0
 40
39.0
 40
40.0
 40
40.0
 40
40.0
 40
41.0
 40
41.0
 40
41.0
 40
42.0
 40
42.0
 40
42.0
 40
43.0
 40
43.0
 40
43.0
 40
44.0
 40
44.0
 40
44.0
 40
45.0
 40
45.0
 40
45.0
 40
46.0
 40
46.0
 40
46.0
 40
47.0
 40
47.0
 40
47.0
 40
48.0
 40
48.0
 40
48.0
 40
49.0
 40
49.0
 40
49.0
 40
50.0
 40
50.0
 40
50.0
 40
51.0
 40
51.0
 40
51.0
 40
52.0
 40
52.0
 40
52.0
 40
53.0
 40
53.0
 40
53.0
 40
54.0
 40
54.0
 40
54.0
 40
54.0
 10
-79.41497827479482
 20
-45.82235377660916
 30
0.0
 10
-80.10950952545123
 20
-27.33700493143555
 30
0.0
 10
-90.55986217093974
 20
-15.49052734155028
 30
0.0
 10
-111.2989924826703
 20
-13.82223985374915
 30
0.0
 10
-111.2989924826703
 20
-13.82223985374915
 30
0.0
 10
-111.3544585199828
 20
-13.82189534420319
 30
0.0
 10
-111.3544585199828
 20
-13.82189534420319
 30
0.0
 10
-111.3544585199828
 20
-13.82189534420319
 30
0.0
 10
-938.2435208169042
 20
67.33818082451106
 30
0.0
 10
-938.2435208169042
 20
67.33818082451106
 30
0.0
 10
-948.3373060791832
 20
68.35310595401262
 30
0.0
 10
-956.217962002075
 20
76.87472189119813
 30
0.0
 10
-956.2179620025403
 20
87.23688009173259
 30
0.0
 10
-956.2179620025403
 20
87.23688009173259
 30
0.0
 10
-956.2179620036122
 20
111.112080823611
 30
0.0
 10
-956.2179620036122
 20
111.112080823611
 30
0.0
 10
-956.2179620036122
 20
111.112080823611
 30
0.0
 10
-778.8844279759719
 20
93.4452866736632
 30
0.0
 10
-778.8844279759719
 20
93.4452866736632
 30
0.0
 10
-778.8844279759719
 20
93.4452866736632
 30
0.0
 10
-777.0550822741056
 20
111.3019055928923
 30
0.0
 10
-777.0550822741056
 20
111.3019055928923
 30
0.0
 10
-777.0550822741056
 20
111.3019055928923
 30
0.0
 10
-597.9962444274423
 20
93.41255827467435
 30
0.0
 10
-597.9962444274423
 20
93.41255827467435
 30
0.0
 10
-597.9962444274423
 20
93.41255827467435
 30
0.0
 10
-599.8255901293081
 20
75.55593935544526
 30
0.0
 10
-599.8255901293081
 20
75.55593935544526
 30
0.0
 10
-599.8255901293081
 20
75.55593935544526
 30
0.0
 10
-420.7126642835283
 20
57.70638289008484
 30
0.0
 10
-420.7126642835283
 20
57.70638289008484
 30
0.0
 10
-420.7126642835283
 20
57.70638289008484
 30
0.0
 10
-418.8829740721139
 20
75.56782494299328
 30
0.0
 10
-418.8829740721139
 20
75.56782494299328
 30
0.0
 10
-418.8829740721139
 20
75.56782494299328
 30
0.0
 10
-239.8144899580963
 20
57.7780408842997
 30
0.0
 10
-239.8144899580963
 20
57.7780408842997
 30
0.0
 10
-239.8144899580963
 20
57.7780408842997
 30
0.0
 10
-241.5542631773409
 20
39.81186792864383
 30
0.0
 10
-241.5542631773409
 20
39.81186792864383
 30
0.0
 10
-241.5542631773409
 20
39.81186792864383
 30
0.0
 10
-62.48577906332326
 20
22.02208386995056
 30
0.0
 10
-62.48577906332326
 20
22.02208386995056
 30
0.0
 10
-62.48577906332326
 20
22.02208386995056
 30
0.0
 10
-60.60200085279206
 20
39.92348903048983
 30
0.0
 10
-60.60200085279206
 20
39.92348903048983
 30
0.0
 10
-60.60200085279206
 20
39.92348903048983
 30
0.0
 10
73.27699352623118
 20
26.53515896172271
 30
0.0
 10
73.27699352623118
 20
26.53515896172271
 30
0.0
 10
73.27699352623118
 20
26.53515896172271
 30
0.0
 10
73.27699352836676
 20
-21.02593450511966
 30
0.0
 10
73.27699352836676
 20
-21.02593450511966
 30
0.0
 10
73.27699352836676
 20
-21.02593450511966
 30
0.0
 10
91.73202553330161
 20
-21.02593450429123
 30
0.0
 10
91.73202553330161
 20
-21.02593450429123
 30
0.0
 10
91.73202553330161
 20
-21.02593450429123
 30
0.0
 10
91.73202553124882
 20
24.69203287794248
 30
0.0
 10
91.73202553124882
 20
24.69203287794248
 30
0.0
 10
91.73202553124882
 20
24.69203287794248
 30
0.0
 10
799.3994244460373
 20
-45.76120329228983
 30
0.0
 10
799.3994244460373
 20
-45.76120329228983
 30
0.0
 10
799.3994244460373
 20
-45.76120329228983
 30
0.0
 10
800.9481671214384
 20
-45.91554356995972
 30
0.0
 10
800.9481671214384
 20
-45.91554356995972
 30
0.0
 10
811.0633119757247
 20
-46.91065940041981
 30
0.0
 10
819.0154536299357
 20
-55.44829503160917
 30
0.0
 10
819.0154536304016
 20
-65.82526714273021
 30
0.0
 10
819.0154536304016
 20
-65.82526714273021
 30
0.0
 10
819.0154536305915
 20
-70.04240852622453
 30
0.0
 10
819.0154536305915
 20
-70.04240852622453
 30
0.0
 10
819.0154536305915
 20
-70.04240852622453
 30
0.0
 10
801.015346484484
 20
-70.04240852703307
 30
0.0
 10
801.015346484484
 20
-70.04240852703307
 30
0.0
 10
801.015346484484
 20
-70.04240852703307
 30
0.0
 10
801.0153464852963
 20
-88.14225118743867
 30
0.0
 10
801.0153464852963
 20
-88.14225118743867
 30
0.0
 10
801.0153464852963
 20
-88.14225118743867
 30
0.0
 10
819.015453631404
 20
-88.14225118663013
 30
0.0
 10
819.015453631404
 20
-88.14225118663013
 30
0.0
 10
819.015453631404
 20
-88.14225118663013
 30
0.0
 10
819.0154536360504
 20
-191.6429103404425
 30
0.0
 10
819.0154536360504
 20
-191.6429103404425
 30
0.0
 10
819.0154536360504
 20
-191.6429103404425
 30
0.0
 10
801.0153464899429
 20
-191.642910341251
 30
0.0
 10
801.0153464899429
 20
-191.642910341251
 30
0.0
 10
801.0153464899429
 20
-191.642910341251
 30
0.0
 10
801.0153464907559
 20
-209.7427530016566
 30
0.0
 10
801.0153464907559
 20
-209.7427530016566
 30
0.0
 10
801.0153464907559
 20
-209.7427530016566
 30
0.0
 10
819.0154536368635
 20
-209.7427530008481
 30
0.0
 10
819.0154536368635
 20
-209.7427530008481
 30
0.0
 10
819.0154536368635
 20
-209.7427530008481
 30
0.0
 10
819.0154536370528
 20
-213.9598943843424
 30
0.0
 10
819.0154536370528
 20
-213.9598943843424
 30
0.0
 10
819.0154536375187
 20
-224.3368664954634
 30
0.0
 10
811.0633119840738
 20
-232.8745021273664
 30
0.0
 10
800.9481671298768
 20
-233.8696179587351
 30
0.0
 10
800.9481671298768
 20
-233.8696179587351
 30
0.0
 10
799.399424454489
 20
-234.0239582365436
 30
0.0
 10
799.399424454489
 20
-234.0239582365436
 30
0.0
 10
799.399424454489
 20
-234.0239582365436
 30
0.0
 10
91.73202554602778
 20
-304.4771944703208
 30
0.0
 10
91.73202554602778
 20
-304.4771944703208
 30
0.0
 10
91.73202554602778
 20
-304.4771944703208
 30
0.0
 10
91.732025543975
 20
-258.7592270880871
 30
0.0
 10
91.732025543975
 20
-258.7592270880871
 30
0.0
 10
91.732025543975
 20
-258.7592270880871
 30
0.0
 10
73.27699353904013
 20
-258.7592270889155
 30
0.0
 10
73.27699353904013
 20
-258.7592270889155
 30
0.0
 10
73.27699353904013
 20
-258.7592270889155
 30
0.0
 10
73.27699354117571
 20
-306.3203205557579
 30
0.0
 10
73.27699354117571
 20
-306.3203205557579
 30
0.0
 10
73.27699354117571
 20
-306.3203205557579
 30
0.0
 10
-60.60200083664595
 20
-319.7086506365466
 30
0.0
 10
-60.60200083664595
 20
-319.7086506365466
 30
0.0
 10
-60.60200083664595
 20
-319.7086506365466
 30
0.0
 10
-62.48577904878429
 20
-301.8072454761755
 30
0.0
 10
-62.48577904878429
 20
-301.8072454761755
 30
0.0
 10
-62.48577904878429
 20
-301.8072454761755
 30
0.0
 10
-241.5542631612047
 20
-319.5970295509484
 30
0.0
 10
-241.5542631612047
 20
-319.5970295509484
 30
0.0
 10
-241.5542631612047
 20
-319.5970295509484
 30
0.0
 10
-239.8144899403469
 20
-337.5632025064486
 30
0.0
 10
-239.8144899403469
 20
-337.5632025064486
 30
0.0
 10
-239.8144899403469
 20
-337.5632025064486
 30
0.0
 10
-418.882974052767
 20
-355.352986581221
 30
0.0
 10
-418.882974052767
 20
-355.352986581221
 30
0.0
 10
-418.882974052767
 20
-355.352986581221
 30
0.0
 10
-420.7126642657853
 20
-337.4915445284768
 30
0.0
 10
-420.7126642657853
 20
-337.4915445284768
 30
0.0
 10
-420.7126642657853
 20
-337.4915445284768
 30
0.0
 10
-599.8255901099625
 20
-355.3411010099208
 30
0.0
 10
-599.8255901099625
 20
-355.3411010099208
 30
0.0
 10
-599.8255901099625
 20
-355.3411010099208
 30
0.0
 10
-597.9962444064931
 20
-373.1977199289856
 30
0.0
 10
-597.9962444064931
 20
-373.1977199289856
 30
0.0
 10
-597.9962444064931
 20
-373.1977199289856
 30
0.0
 10
-777.0550822515503
 20
-391.0870672632817
 30
0.0
 10
-777.0550822515503
 20
-391.0870672632817
 30
0.0
 10
-777.0550822515503
 20
-391.0870672632817
 30
0.0
 10
-778.8844279550198
 20
-373.2304483442168
 30
0.0
 10
-778.8844279550198
 20
-373.2304483442168
 30
0.0
 10
-778.8844279550198
 20
-373.2304483442168
 30
0.0
 10
-956.2179619810738
 20
-390.8972425100881
 30
0.0
 10
-956.2179619810738
 20
-390.8972425100881
 30
0.0
 10
-956.2179619810738
 20
-390.8972425100881
 30
0.0
 10
-956.2179619821454
 20
-367.0220417782097
 30
0.0
 10
-956.2179619821454
 20
-367.0220417782097
 30
0.0
 10
-956.2179619826106
 20
-356.6598835776752
 30
0.0
 10
-948.3373060604845
 20
-348.1382676397819
 30
0.0
 10
-938.2435207982965
 20
-347.1233425093736
 30
0.0
 10
-938.2435207982965
 20
-347.1233425093736
 30
0.0
 10
-111.3544585086626
 20
-265.9632662664109
 30
0.0
 10
-111.3544585086626
 20
-265.9632662664109
 30
0.0
 10
-111.3544585086626
 20
-265.9632662664109
 30
0.0
 10
-111.2989924713501
 20
-265.9629217568598
 30
0.0
 10
-111.2989924713501
 20
-265.9629217568598
 30
0.0
 10
-90.55986215976935
 20
-264.2946342671965
 30
0.0
 10
-80.10950951534447
 20
-252.4481566763731
 30
0.0
 10
-79.41497826634782
 20
-233.9628078311366
 30
0.0
 10
-79.41497826634782
 20
-233.9628078311366
 30
0.0
 10
-79.41497827479482
 20
-45.82235377660916
 30
0.0
 10
-79.41497827479482
 20
-45.82235377660916
 30
0.0
  0
ENDBLK
  5
D9
330
D6
100
AcDbEntity
  8
0
100
AcDbBlockEnd
  0
BLOCK
  5
DD
330
DB
100
AcDbEntity
  8
0
100
AcDbBlockBegin
  2
BLOCK_30
 70
     0
 10
0.0
 20
0.0
 30
0.0
  3
BLOCK_30
  1

  0
SPLINE
  5
DF
330
DB
100
AcDbEntity
  8
LAYER_1
 62
   250
100
AcDbSpline
210
0.0
220
0.0
230
1.0
 70
    11
 71
     3
 72
    41
 73
    37
 74
     0
 42
0.0000000001
 43
0.0000000001
 12
1.0
 22
0.0
 32
0.0
 13
1.0
 23
0.0
 33
0.0
 40
0.0
 40
0.0
 40
0.0
 40
0.0
 40
1.0
 40
1.0
 40
1.0
 40
2.0
 40
2.0
 40
2.0
 40
3.0
 40
3.0
 40
3.0
 40
4.0
 40
4.0
 40
4.0
 40
5.0
 40
5.0
 40
5.0
 40
6.0
 40
6.0
 40
6.0
 40
7.0
 40
7.0
 40
7.0
 40
8.0
 40
8.0
 40
8.0
 40
9.0
 40
9.0
 40
9.0
 40
10.0
 40
10.0
 40
10.0
 40
11.0
 40
11.0
 40
11.0
 40
12.0
 40
12.0
 40
12.0
 40
12.0
 10
105.3554833773651
 20
-74.86140812303331
 30
0.0
 10
105.3554833773651
 20
-74.86140812303331
 30
0.0
 10
105.3554833773625
 20
-74.80800914301194
 30
0.0
 10
105.3554833773625
 20
-74.80800914301194
 30
0.0
 10
105.3554833764943
 20
-55.4780951395979
 30
0.0
 10
121.0255001904499
 20
-39.80807832423507
 30
0.0
 10
140.355414193864
 20
-39.80807832336749
 30
0.0
 10
141.511071474391
 20
-39.80807832331551
 30
0.0
 10
142.6536373920767
 20
-39.86406112489949
 30
0.0
 10
143.7805281253071
 20
-39.97344290650548
 30
0.0
 10
143.7805281253071
 20
-39.97344290650548
 30
0.0
 10
735.906142400291
 20
-94.3687445156279
 30
0.0
 10
735.906142400291
 20
-94.3687445156279
 30
0.0
 10
754.0132197612752
 20
-95.70768087515722
 30
0.0
 10
768.2879729050868
 20
-110.8228650612756
 30
0.0
 10
768.2879729059152
 20
-129.2723849134346
 30
0.0
 10
768.2879729059152
 20
-129.2723849134346
 30
0.0
 10
768.2879729068688
 20
-150.512776618194
 30
0.0
 10
768.2879729068688
 20
-150.512776618194
 30
0.0
 10
768.2879729076966
 20
-168.9622964703525
 30
0.0
 10
754.0132197652429
 20
-184.0774806577523
 30
0.0
 10
735.9061424043786
 20
-185.4164170189077
 30
0.0
 10
735.9061424043786
 20
-185.4164170189077
 30
0.0
 10
143.7805281342787
 20
-239.8117186811987
 30
0.0
 10
143.7805281342787
 20
-239.8117186811987
 30
0.0
 10
142.6536374010585
 20
-239.9211004629061
 30
0.0
 10
141.511071483378
 20
-239.9770832645927
 30
0.0
 10
140.355414202851
 20
-239.9770832646447
 30
0.0
 10
121.0255001994369
 20
-239.9770832655123
 30
0.0
 10
105.3554833840747
 20
-224.3070664515573
 30
0.0
 10
105.3554833832065
 20
-204.9771524481433
 30
0.0
 10
105.3554833832065
 20
-204.9771524481433
 30
0.0
 10
105.3554833832039
 20
-204.9237534681219
 30
0.0
 10
105.3554833832039
 20
-204.9237534681219
 30
0.0
 10
105.3554833832039
 20
-204.9237534681219
 30
0.0
 10
105.3554833773651
 20
-74.86140812303331
 30
0.0
 10
105.3554833773651
 20
-74.86140812303331
 30
0.0
  0
ENDBLK
  5
DE
330
DB
100
AcDbEntity
  8
0
100
AcDbBlockEnd
  0
BLOCK
  5
E2
330
E0
100
AcDbEntity
  8
0
100
AcDbBlockBegin
  2
BLOCK_31
 70
     0
 10
0.0
 20
0.0
 30
0.0
  3
BLOCK_31
  1

  0
SPLINE
  5
E4
330
E0
100
AcDbEntity
  8
LAYER_1
 62
   250
100
AcDbSpline
210
0.0
220
0.0
230
1.0
 70
    11
 71
     3
 72
   167
 73
   163
 74
     0
 42
0.0000000001
 43
0.0000000001
 12
1.0
 22
0.0
 32
0.0
 13
1.0
 23
0.0
 33
0.0
 40
0.0
 40
0.0
 40
0.0
 40
0.0
 40
1.0
 40
1.0
 40
1.0
 40
2.0
 40
2.0
 40
2.0
 40
3.0
 40
3.0
 40
3.0
 40
4.0
 40
4.0
 40
4.0
 40
5.0
 40
5.0
 40
5.0
 40
6.0
 40
6.0
 40
6.0
 40
7.0
 40
7.0
 40
7.0
 40
8.0
 40
8.0
 40
8.0
 40
9.0
 40
9.0
 40
9.0
 40
10.0
 40
10.0
 40
10.0
 40
11.0
 40
11.0
 40
11.0
 40
12.0
 40
12.0
 40
12.0
 40
13.0
 40
13.0
 40
13.0
 40
14.0
 40
14.0
 40
14.0
 40
15.0
 40
15.0
 40
15.0
 40
16.0
 40
16.0
 40
16.0
 40
17.0
 40
17.0
 40
17.0
 40
18.0
 40
18.0
 40
18.0
 40
19.0
 40
19.0
 40
19.0
 40
20.0
 40
20.0
 40
20.0
 40
21.0
 40
21.0
 40
21.0
 40
22.0
 40
22.0
 40
22.0
 40
23.0
 40
23.0
 40
23.0
 40
24.0
 40
24.0
 40
24.0
 40
25.0
 40
25.0
 40
25.0
 40
26.0
 40
26.0
 40
26.0
 40
27.0
 40
27.0
 40
27.0
 40
28.0
 40
28.0
 40
28.0
 40
29.0
 40
29.0
 40
29.0
 40
30.0
 40
30.0
 40
30.0
 40
31.0
 40
31.0
 40
31.0
 40
32.0
 40
32.0
 40
32.0
 40
33.0
 40
33.0
 40
33.0
 40
34.0
 40
34.0
 40
34.0
 40
35.0
 40
35.0
 40
35.0
 40
36.0
 40
36.0
 40
36.0
 40
37.0
 40
37.0
 40
37.0
 40
38.0
 40
38.0
 40
38.0
 40
39.0
 40
39.0
 40
39.0
 40
40.0
 40
40.0
 40
40.0
 40
41.0
 40
41.0
 40
41.0
 40
42.0
 40
42.0
 40
42.0
 40
43.0
 40
43.0
 40
43.0
 40
44.0
 40
44.0
 40
44.0
 40
45.0
 40
45.0
 40
45.0
 40
46.0
 40
46.0
 40
46.0
 40
47.0
 40
47.0
 40
47.0
 40
48.0
 40
48.0
 40
48.0
 40
49.0
 40
49.0
 40
49.0
 40
50.0
 40
50.0
 40
50.0
 40
51.0
 40
51.0
 40
51.0
 40
52.0
 40
52.0
 40
52.0
 40
53.0
 40
53.0
 40
53.0
 40
54.0
 40
54.0
 40
54.0
 40
54.0
 10
240.4672635252289
 20
117.3166440440892
 30
0.0
 10
241.1617947775451
 20
98.83129519897781
 30
0.0
 10
251.6121474240972
 20
86.98481761003072
 30
0.0
 10
272.3512777359779
 20
85.3165301240918
 30
0.0
 10
272.3512777359779
 20
85.3165301240918
 30
0.0
 10
272.4067437732904
 20
85.31618561455097
 30
0.0
 10
272.4067437732904
 20
85.31618561455097
 30
0.0
 10
272.4067437732904
 20
85.31618561455097
 30
0.0
 10
1099.295806077499
 20
4.156109520085798
 30
0.0
 10
1099.295806077499
 20
4.156109520085798
 30
0.0
 10
1109.389591339869
 20
3.141184391490315
 30
0.0
 10
1117.270247263526
 20
-5.380431544987409
 30
0.0
 10
1117.270247264922
 20
-15.74258974552187
 30
0.0
 10
1117.270247264922
 20
-15.74258974552187
 30
0.0
 10
1117.270247268138
 20
-39.61779047740029
 30
0.0
 10
1117.270247268138
 20
-39.61779047740029
 30
0.0
 10
1117.270247268138
 20
-39.61779047740029
 30
0.0
 10
939.9367132389114
 20
-21.95099634337592
 30
0.0
 10
939.9367132389114
 20
-21.95099634337592
 30
0.0
 10
939.9367132389114
 20
-21.95099634337592
 30
0.0
 10
938.1073675386482
 20
-39.80761526276929
 30
0.0
 10
938.1073675386482
 20
-39.80761526276929
 30
0.0
 10
938.1073675386482
 20
-39.80761526276929
 30
0.0
 10
759.0485296903782
 20
-21.91826796062944
 30
0.0
 10
759.0485296903782
 20
-21.91826796062944
 30
0.0
 10
759.0485296903782
 20
-21.91826796062944
 30
0.0
 10
760.8778753906408
 20
-4.061649041236067
 30
0.0
 10
760.8778753906408
 20
-4.061649041236067
 30
0.0
 10
760.8778753906408
 20
-4.061649041236067
 30
0.0
 10
581.7649495432584
 20
13.78790740804145
 30
0.0
 10
581.7649495432584
 20
13.78790740804145
 30
0.0
 10
581.7649495432584
 20
13.78790740804145
 30
0.0
 10
579.9352593334479
 20
-4.073534645031909
 30
0.0
 10
579.9352593334479
 20
-4.073534645031909
 30
0.0
 10
579.9352593334479
 20
-4.073534645031909
 30
0.0
 10
400.8667752178328
 20
13.71624939758294
 30
0.0
 10
400.8667752178328
 20
13.71624939758294
 30
0.0
 10
400.8667752178328
 20
13.71624939758294
 30
0.0
 10
402.6065484354641
 20
31.68242235339507
 30
0.0
 10
402.6065484354641
 20
31.68242235339507
 30
0.0
 10
402.6065484354641
 20
31.68242235339507
 30
0.0
 10
223.538064319849
 20
49.47220639600928
 30
0.0
 10
223.538064319849
 20
49.47220639600928
 30
0.0
 10
223.538064319849
 20
49.47220639600928
 30
0.0
 10
221.6542861109252
 20
31.5708012353006
 30
0.0
 10
221.6542861109252
 20
31.5708012353006
 30
0.0
 10
221.6542861109252
 20
31.5708012353006
 30
0.0
 10
87.77529173070008
 20
44.95913129204613
 30
0.0
 10
87.77529173070008
 20
44.95913129204613
 30
0.0
 10
87.77529173070008
 20
44.95913129204613
 30
0.0
 10
87.77529172429335
 20
92.5202247588885
 30
0.0
 10
87.77529172429335
 20
92.5202247588885
 30
0.0
 10
87.77529172429335
 20
92.5202247588885
 30
0.0
 10
69.3202597193585
 20
92.5202247564032
 30
0.0
 10
69.3202597193585
 20
92.5202247564032
 30
0.0
 10
69.3202597193585
 20
92.5202247564032
 30
0.0
 10
69.32025972551689
 20
46.80225737416949
 30
0.0
 10
69.32025972551689
 20
46.80225737416949
 30
0.0
 10
69.32025972551689
 20
46.80225737416949
 30
0.0
 10
-638.3471391955981
 20
117.2554934808582
 30
0.0
 10
-638.3471391955981
 20
117.2554934808582
 30
0.0
 10
-638.3471391955981
 20
117.2554934808582
 30
0.0
 10
-639.8958818710126
 20
117.4098337583888
 30
0.0
 10
-639.8958818710126
 20
117.4098337583888
 30
0.0
 10
-650.0110267253884
 20
118.4049495879409
 30
0.0
 10
-657.963168380366
 20
126.9425852184161
 30
0.0
 10
-657.9631683817637
 20
137.3195573295371
 30
0.0
 10
-657.9631683817637
 20
137.3195573295371
 30
0.0
 10
-657.9631683823322
 20
141.5366987130314
 30
0.0
 10
-657.9631683823322
 20
141.5366987130314
 30
0.0
 10
-657.9631683823322
 20
141.5366987130314
 30
0.0
 10
-639.9630612362246
 20
141.5366987154561
 30
0.0
 10
-639.9630612362246
 20
141.5366987154561
 30
0.0
 10
-639.9630612362246
 20
141.5366987154561
 30
0.0
 10
-639.9630612386624
 20
159.6365413758617
 30
0.0
 10
-639.9630612386624
 20
159.6365413758617
 30
0.0
 10
-639.9630612386624
 20
159.6365413758617
 30
0.0
 10
-657.96316838477
 20
159.636541373437
 30
0.0
 10
-657.96316838477
 20
159.636541373437
 30
0.0
 10
-657.96316838477
 20
159.636541373437
 30
0.0
 10
-657.9631683987103
 20
263.1372005272494
 30
0.0
 10
-657.9631683987103
 20
263.1372005272494
 30
0.0
 10
-657.9631683987103
 20
263.1372005272494
 30
0.0
 10
-639.9630612526026
 20
263.137200529674
 30
0.0
 10
-639.9630612526026
 20
263.137200529674
 30
0.0
 10
-639.9630612526026
 20
263.137200529674
 30
0.0
 10
-639.9630612550411
 20
281.2370431900796
 30
0.0
 10
-639.9630612550411
 20
281.2370431900796
 30
0.0
 10
-639.9630612550411
 20
281.2370431900796
 30
0.0
 10
-657.9631684011488
 20
281.237043187655
 30
0.0
 10
-657.9631684011488
 20
281.237043187655
 30
0.0
 10
-657.9631684011488
 20
281.237043187655
 30
0.0
 10
-657.9631684017166
 20
285.4541845711493
 30
0.0
 10
-657.9631684017166
 20
285.4541845711493
 30
0.0
 10
-657.9631684031143
 20
295.8311566822703
 30
0.0
 10
-650.0110267504359
 20
304.3687923148872
 30
0.0
 10
-639.8958818963283
 20
305.3639081471642
 30
0.0
 10
-639.8958818963283
 20
305.3639081471642
 30
0.0
 10
-638.3471392209541
 20
305.5182484251119
 30
0.0
 10
-638.3471392209541
 20
305.5182484251119
 30
0.0
 10
-638.3471392209541
 20
305.5182484251119
 30
0.0
 10
69.32025968118062
 20
375.9714847224328
 30
0.0
 10
69.32025968118062
 20
375.9714847224328
 30
0.0
 10
69.32025968118062
 20
375.9714847224328
 30
0.0
 10
69.320259687339
 20
330.253517340199
 30
0.0
 10
69.320259687339
 20
330.253517340199
 30
0.0
 10
69.320259687339
 20
330.253517340199
 30
0.0
 10
87.77529169227385
 20
330.2535173426847
 30
0.0
 10
87.77529169227385
 20
330.2535173426847
 30
0.0
 10
87.77529169227385
 20
330.2535173426847
 30
0.0
 10
87.77529168586713
 20
377.814610809527
 30
0.0
 10
87.77529168586713
 20
377.814610809527
 30
0.0
 10
87.77529168586713
 20
377.814610809527
 30
0.0
 10
221.6542860624866
 20
391.202940902337
 30
0.0
 10
221.6542860624866
 20
391.202940902337
 30
0.0
 10
221.6542860624866
 20
391.202940902337
 30
0.0
 10
223.5380642762327
 20
373.3015357421353
 30
0.0
 10
223.5380642762327
 20
373.3015357421353
 30
0.0
 10
223.5380642762327
 20
373.3015357421353
 30
0.0
 10
402.6065483870556
 20
391.0913198329873
 30
0.0
 10
402.6065483870556
 20
391.0913198329873
 30
0.0
 10
402.6065483870556
 20
391.0913198329873
 30
0.0
 10
400.8667751645846
 20
409.0574927883313
 30
0.0
 10
400.8667751645846
 20
409.0574927883313
 30
0.0
 10
400.8667751645846
 20
409.0574927883313
 30
0.0
 10
579.9352592754068
 20
426.8472768791827
 30
0.0
 10
579.9352592754068
 20
426.8472768791827
 30
0.0
 10
579.9352592754068
 20
426.8472768791827
 30
0.0
 10
581.7649494900294
 20
408.9858348266028
 30
0.0
 10
581.7649494900294
 20
408.9858348266028
 30
0.0
 10
581.7649494900294
 20
408.9858348266028
 30
0.0
 10
760.8778753326037
 20
426.8353913241299
 30
0.0
 10
760.8778753326037
 20
426.8353913241299
 30
0.0
 10
760.8778753326037
 20
426.8353913241299
 30
0.0
 10
759.0485296275309
 20
444.6920102430305
 30
0.0
 10
759.0485296275309
 20
444.6920102430305
 30
0.0
 10
759.0485296275309
 20
444.6920102430305
 30
0.0
 10
938.1073674709817
 20
462.5813575934046
 30
0.0
 10
938.1073674709817
 20
462.5813575934046
 30
0.0
 10
938.1073674709817
 20
462.5813575934046
 30
0.0
 10
939.9367131760544
 20
444.7247386745041
 30
0.0
 10
939.9367131760544
 20
444.7247386745041
 30
0.0
 10
939.9367131760544
 20
444.7247386745041
 30
0.0
 10
1117.270247200522
 20
462.3915328562988
 30
0.0
 10
1117.270247200522
 20
462.3915328562988
 30
0.0
 10
1117.270247200522
 20
462.3915328562988
 30
0.0
 10
1117.270247203738
 20
438.5163321244204
 30
0.0
 10
1117.270247203738
 20
438.5163321244204
 30
0.0
 10
1117.270247205134
 20
428.1541739238859
 30
0.0
 10
1109.389591283772
 20
419.6325579852848
 30
0.0
 10
1099.295806021676
 20
418.6176328539705
 30
0.0
 10
1099.295806021676
 20
418.6176328539705
 30
0.0
 10
272.4067437393292
 20
337.4575565367587
 30
0.0
 10
272.4067437393292
 20
337.4575565367587
 30
0.0
 10
272.4067437393292
 20
337.4575565367587
 30
0.0
 10
272.3512777020166
 20
337.4572120272024
 30
0.0
 10
272.3512777020166
 20
337.4572120272024
 30
0.0
 10
251.6121473905864
 20
335.7889245356769
 30
0.0
 10
241.1617947472248
 20
323.9424469439153
 30
0.0
 10
240.4672634998882
 20
305.4570980986163
 30
0.0
 10
240.4672634998882
 20
305.4570980986163
 30
0.0
 10
240.4672635252289
 20
117.3166440440892
 30
0.0
 10
240.4672635252289
 20
117.3166440440892
 30
0.0
  0
ENDBLK
  5
E3
330
E0
100
AcDbEntity
  8
0
100
AcDbBlockEnd
  0
BLOCK
  5
E7
330
E5
100
AcDbEntity
  8
0
100
AcDbBlockBegin
  2
BLOCK_32
 70
     0
 10
0.0
 20
0.0
 30
0.0
  3
BLOCK_32
  1

  0
SPLINE
  5
E9
330
E5
100
AcDbEntity
  8
LAYER_1
 62
   250
100
AcDbSpline
210
0.0
220
0.0
230
1.0
 70
    11
 71
     3
 72
    41
 73
    37
 74
     0
 42
0.0000000001
 43
0.0000000001
 12
1.0
 22
0.0
 32
0.0
 13
1.0
 23
0.0
 33
0.0
 40
0.0
 40
0.0
 40
0.0
 40
0.0
 40
1.0
 40
1.0
 40
1.0
 40
2.0
 40
2.0
 40
2.0
 40
3.0
 40
3.0
 40
3.0
 40
4.0
 40
4.0
 40
4.0
 40
5.0
 40
5.0
 40
5.0
 40
6.0
 40
6.0
 40
6.0
 40
7.0
 40
7.0
 40
7.0
 40
8.0
 40
8.0
 40
8.0
 40
9.0
 40
9.0
 40
9.0
 40
10.0
 40
10.0
 40
10.0
 40
11.0
 40
11.0
 40
11.0
 40
12.0
 40
12.0
 40
12.0
 40
12.0
 10
55.69680187046141
 20
146.3556983739219
 30
0.0
 10
55.69680187046141
 20
146.3556983739219
 30
0.0
 10
55.69680187046878
 20
146.3022993939005
 30
0.0
 10
55.69680187046878
 20
146.3022993939005
 30
0.0
 10
55.69680187307248
 20
126.9723853904868
 30
0.0
 10
40.02678506052414
 20
111.3023685737167
 30
0.0
 10
20.69687105711009
 20
111.3023685711133
 30
0.0
 10
19.54121377658303
 20
111.3023685709574
 30
0.0
 10
18.39864785889222
 20
111.3583513724387
 30
0.0
 10
17.27175712565192
 20
111.467733153944
 30
0.0
 10
17.27175712565192
 20
111.467733153944
 30
0.0
 10
-574.8538571542159
 20
165.8630347098974
 30
0.0
 10
-574.8538571542159
 20
165.8630347098974
 30
0.0
 10
-592.9609345153208
 20
167.2019710678007
 30
0.0
 10
-607.2356876604897
 20
182.3171552526372
 30
0.0
 10
-607.2356876629747
 20
200.7666751047963
 30
0.0
 10
-607.2356876629747
 20
200.7666751047963
 30
0.0
 10
-607.2356876658354
 20
222.0070668095557
 30
0.0
 10
-607.2356876658354
 20
222.0070668095557
 30
0.0
 10
-607.2356876683197
 20
240.4565866617141
 30
0.0
 10
-592.9609345272231
 20
255.5717708503958
 30
0.0
 10
-574.8538571664794
 20
256.9107072131772
 30
0.0
 10
-574.8538571664794
 20
256.9107072131772
 30
0.0
 10
17.2717570987365
 20
311.3060089286372
 30
0.0
 10
17.2717570987365
 20
311.3060089286372
 30
0.0
 10
18.39864783194664
 20
311.4153907104456
 30
0.0
 10
19.54121374962205
 20
311.4713735122349
 30
0.0
 10
20.6968710301491
 20
311.4713735123905
 30
0.0
 10
40.02678503356316
 20
311.4713735149939
 30
0.0
 10
55.69680185033259
 20
295.8013567024459
 30
0.0
 10
55.69680185293628
 20
276.4714426990319
 30
0.0
 10
55.69680185293628
 20
276.4714426990319
 30
0.0
 10
55.69680185294366
 20
276.4180437190105
 30
0.0
 10
55.69680185294366
 20
276.4180437190105
 30
0.0
 10
55.69680185294366
 20
276.4180437190105
 30
0.0
 10
55.69680187046141
 20
146.3556983739219
 30
0.0
 10
55.69680187046141
 20
146.3556983739219
 30
0.0
  0
ENDBLK
  5
E8
330
E5
100
AcDbEntity
  8
0
100
AcDbBlockEnd
  0
BLOCK
  5
EC
330
EA
100
AcDbEntity
  8
0
100
AcDbBlockBegin
  2
BLOCK_33
 70
     0
 10
0.0
 20
0.0
 30
0.0
  3
BLOCK_33
  1

  0
SPLINE
  5
EE
330
EA
100
AcDbEntity
  8
LAYER_1
 62
   250
100
AcDbSpline
210
0.0
220
0.0
230
1.0
 70
    11
 71
     3
 72
    62
 73
    58
 74
     0
 42
0.0000000001
 43
0.0000000001
 12
1.0
 22
0.0
 32
0.0
 13
1.0
 23
0.0
 33
0.0
 40
0.0
 40
0.0
 40
0.0
 40
0.0
 40
1.0
 40
1.0
 40
1.0
 40
2.0
 40
2.0
 40
2.0
 40
3.0
 40
3.0
 40
3.0
 40
4.0
 40
4.0
 40
4.0
 40
5.0
 40
5.0
 40
5.0
 40
6.0
 40
6.0
 40
6.0
 40
7.0
 40
7.0
 40
7.0
 40
8.0
 40
8.0
 40
8.0
 40
9.0
 40
9.0
 40
9.0
 40
10.0
 40
10.0
 40
10.0
 40
11.0
 40
11.0
 40
11.0
 40
12.0
 40
12.0
 40
12.0
 40
13.0
 40
13.0
 40
13.0
 40
14.0
 40
14.0
 40
14.0
 40
15.0
 40
15.0
 40
15.0
 40
16.0
 40
16.0
 40
16.0
 40
17.0
 40
17.0
 40
17.0
 40
18.0
 40
18.0
 40
18.0
 40
19.0
 40
19.0
 40
19.0
 40
19.0
 10
-320.0492400682153
 20
448.0440507055554
 30
0.0
 10
-78.7161672120167
 20
448.7926699978406
 30
0.0
 10
218.483952073459
 20
436.895721812
 30
0.0
 10
218.483952073459
 20
436.895721812
 30
0.0
 10
218.483952073459
 20
436.895721812
 30
0.0
 10
256.8506024544924
 20
436.8957218188905
 30
0.0
 10
256.8506024544924
 20
436.8957218188905
 30
0.0
 10
256.8506024544924
 20
436.8957218188905
 30
0.0
 10
256.8506024516278
 20
452.845652641726
 30
0.0
 10
256.8506024516278
 20
452.845652641726
 30
0.0
 10
256.8506024516278
 20
452.845652641726
 30
0.0
 10
274.9504451120334
 20
452.8456526449762
 30
0.0
 10
274.9504451120334
 20
452.8456526449762
 30
0.0
 10
274.9504451120334
 20
452.8456526449762
 30
0.0
 10
274.9504451149063
 20
436.8457679376046
 30
0.0
 10
274.9504451149063
 20
436.8457679376046
 30
0.0
 10
274.9504451149063
 20
436.8457679376046
 30
0.0
 10
281.7066218710298
 20
436.8457679388181
 30
0.0
 10
281.7066218710298
 20
436.8457679388181
 30
0.0
 10
288.3243057886462
 20
436.8457679400065
 30
0.0
 10
291.2857098670681
 20
440.7351084886113
 30
0.0
 10
291.3118925918294
 20
445.8956892707457
 30
0.0
 10
291.3118925918294
 20
445.8956892707457
 30
0.0
 10
291.3360082545722
 20
477.3799001461257
 30
0.0
 10
291.3360082545722
 20
477.3799001461257
 30
0.0
 10
291.3360082532175
 20
484.9246592588229
 30
0.0
 10
286.5462919997384
 20
486.7958628707758
 30
0.0
 10
281.7066218620505
 20
486.845816754443
 30
0.0
 10
281.7066218620505
 20
486.845816754443
 30
0.0
 10
-921.8051020124188
 20
486.8458165383086
 30
0.0
 10
-921.8051020124188
 20
486.8458165383086
 30
0.0
 10
-926.6447721500889
 20
486.7958626529023
 30
0.0
 10
-931.4343161481212
 20
484.9246590392296
 30
0.0
 10
-931.4343161467666
 20
477.3798999265325
 30
0.0
 10
-931.4343161467666
 20
477.3798999265325
 30
0.0
 10
-931.4103727274901
 20
445.8956890511615
 30
0.0
 10
-931.4103727274901
 20
445.8956890511615
 30
0.0
 10
-931.3843622556492
 20
440.7351082690359
 30
0.0
 10
-928.422785921056
 20
436.8457677214951
 30
0.0
 10
-921.8051020034396
 20
436.8457677226835
 30
0.0
 10
-921.8051020034396
 20
436.8457677226835
 30
0.0
 10
-915.0490975020904
 20
436.845767723897
 30
0.0
 10
-915.0490975020904
 20
436.845767723897
 30
0.0
 10
-915.0490975020904
 20
436.845767723897
 30
0.0
 10
-915.0490975049639
 20
452.8456524312685
 30
0.0
 10
-915.0490975049639
 20
452.8456524312685
 30
0.0
 10
-915.0490975049639
 20
452.8456524312685
 30
0.0
 10
-896.9490825897841
 20
452.8456524345188
 30
0.0
 10
-896.9490825897841
 20
452.8456524345188
 30
0.0
 10
-896.9490825897841
 20
452.8456524345188
 30
0.0
 10
-896.9490825869195
 20
436.8957216116833
 30
0.0
 10
-896.9490825869195
 20
436.8957216116833
 30
0.0
 10
-896.9490825869195
 20
436.8957216116833
 30
0.0
 10
-858.5824322058862
 20
436.8957216185739
 30
0.0
 10
-858.5824322058862
 20
436.8957216185739
 30
0.0
 10
-858.5824322058862
 20
436.8957216185739
 30
0.0
 10
-561.3823129246836
 20
448.7926699111599
 30
0.0
 10
-320.0492400682153
 20
448.0440507055554
 30
0.0
  0
ENDBLK
  5
ED
330
EA
100
AcDbEntity
  8
0
100
AcDbBlockEnd
  0
ENDSEC
  0
SECTION
  2
ENTITIES
  0
INSERT
  5
42
330
1F
100
AcDbEntity
  8
LAYER_1
100
AcDbBlockReference
  2
BLOCK_2
 10
0.0
 20
0.0
 30
0.0
  0
INSERT
  5
47
330
1F
100
AcDbEntity
  8
LAYER_1
100
AcDbBlockReference
  2
BLOCK_3
 10
0.0
 20
0.0
 30
0.0
  0
INSERT
  5
4C
330
1F
100
AcDbEntity
  8
LAYER_1
100
AcDbBlockReference
  2
BLOCK_4
 10
0.0
 20
0.0
 30
0.0
  0
INSERT
  5
51
330
1F
100
AcDbEntity
  8
LAYER_1
100
AcDbBlockReference
  2
BLOCK_5
 10
0.0
 20
0.0
 30
0.0
  0
INSERT
  5
56
330
1F
100
AcDbEntity
  8
LAYER_1
100
AcDbBlockReference
  2
BLOCK_6
 10
0.0
 20
0.0
 30
0.0
  0
INSERT
  5
5B
330
1F
100
AcDbEntity
  8
LAYER_1
100
AcDbBlockReference
  2
BLOCK_7
 10
0.0
 20
0.0
 30
0.0
  0
INSERT
  5
60
330
1F
100
AcDbEntity
  8
LAYER_1
100
AcDbBlockReference
  2
BLOCK_8
 10
0.0
 20
0.0
 30
0.0
  0
INSERT
  5
65
330
1F
100
AcDbEntity
  8
LAYER_1
100
AcDbBlockReference
  2
BLOCK_9
 10
0.0
 20
0.0
 30
0.0
  0
INSERT
  5
6A
330
1F
100
AcDbEntity
  8
LAYER_1
100
AcDbBlockReference
  2
BLOCK_10
 10
0.0
 20
0.0
 30
0.0
  0
INSERT
  5
6F
330
1F
100
AcDbEntity
  8
LAYER_1
100
AcDbBlockReference
  2
BLOCK_11
 10
0.0
 20
0.0
 30
0.0
  0
INSERT
  5
74
330
1F
100
AcDbEntity
  8
LAYER_1
100
AcDbBlockReference
  2
BLOCK_12
 10
0.0
 20
0.0
 30
0.0
  0
INSERT
  5
79
330
1F
100
AcDbEntity
  8
LAYER_1
100
AcDbBlockReference
  2
BLOCK_13
 10
0.0
 20
0.0
 30
0.0
  0
INSERT
  5
7E
330
1F
100
AcDbEntity
  8
LAYER_1
100
AcDbBlockReference
  2
BLOCK_14
 10
0.0
 20
0.0
 30
0.0
  0
INSERT
  5
91
330
1F
100
AcDbEntity
  8
LAYER_1
100
AcDbBlockReference
  2
BLOCK_15
 10
0.0
 20
0.0
 30
0.0
  0
INSERT
  5
96
330
1F
100
AcDbEntity
  8
LAYER_1
100
AcDbBlockReference
  2
BLOCK_16
 10
0.0
 20
0.0
 30
0.0
  0
INSERT
  5
9B
330
1F
100
AcDbEntity
  8
LAYER_1
100
AcDbBlockReference
  2
BLOCK_17
 10
0.0
 20
0.0
 30
0.0
  0
INSERT
  5
A0
330
1F
100
AcDbEntity
  8
LAYER_1
100
AcDbBlockReference
  2
BLOCK_18
 10
0.0
 20
0.0
 30
0.0
  0
INSERT
  5
A5
330
1F
100
AcDbEntity
  8
LAYER_1
100
AcDbBlockReference
  2
BLOCK_19
 10
0.0
 20
0.0
 30
0.0
  0
INSERT
  5
AA
330
1F
100
AcDbEntity
  8
LAYER_1
100
AcDbBlockReference
  2
BLOCK_20
 10
0.0
 20
0.0
 30
0.0
  0
INSERT
  5
AF
330
1F
100
AcDbEntity
  8
LAYER_1
100
AcDbBlockReference
  2
BLOCK_21
 10
0.0
 20
0.0
 30
0.0
  0
INSERT
  5
B4
330
1F
100
AcDbEntity
  8
LAYER_1
100
AcDbBlockReference
  2
BLOCK_22
 10
0.0
 20
0.0
 30
0.0
  0
INSERT
  5
B9
330
1F
100
AcDbEntity
  8
LAYER_1
100
AcDbBlockReference
  2
BLOCK_23
 10
0.0
 20
0.0
 30
0.0
  0
INSERT
  5
BE
330
1F
100
AcDbEntity
  8
LAYER_1
100
AcDbBlockReference
  2
BLOCK_24
 10
0.0
 20
0.0
 30
0.0
  0
INSERT
  5
C3
330
1F
100
AcDbEntity
  8
LAYER_1
100
AcDbBlockReference
  2
BLOCK_25
 10
0.0
 20
0.0
 30
0.0
  0
INSERT
  5
C8
330
1F
100
AcDbEntity
  8
LAYER_1
100
AcDbBlockReference
  2
BLOCK_26
 10
0.0
 20
0.0
 30
0.0
  0
INSERT
  5
CD
330
1F
100
AcDbEntity
  8
LAYER_1
100
AcDbBlockReference
  2
BLOCK_27
 10
0.0
 20
0.0
 30
0.0
  0
INSERT
  5
D2
330
1F
100
AcDbEntity
  8
LAYER_1
100
AcDbBlockReference
  2
BLOCK_28
 10
0.0
 20
0.0
 30
0.0
  0
INSERT
  5
D7
330
1F
100
AcDbEntity
  8
LAYER_1
100
AcDbBlockReference
  2
BLOCK_29
 10
0.0
 20
0.0
 30
0.0
  0
INSERT
  5
DC
330
1F
100
AcDbEntity
  8
LAYER_1
100
AcDbBlockReference
  2
BLOCK_30
 10
0.0
 20
0.0
 30
0.0
  0
INSERT
  5
E1
330
1F
100
AcDbEntity
  8
LAYER_1
100
AcDbBlockReference
  2
BLOCK_31
 10
0.0
 20
0.0
 30
0.0
  0
INSERT
  5
E6
330
1F
100
AcDbEntity
  8
LAYER_1
100
AcDbBlockReference
  2
BLOCK_32
 10
0.0
 20
0.0
 30
0.0
  0
INSERT
  5
EB
330
1F
100
AcDbEntity
  8
LAYER_1
100
AcDbBlockReference
  2
BLOCK_33
 10
0.0
 20
0.0
 30
0.0
  0
ENDSEC
  0
SECTION
  2
OBJECTS
  0
DICTIONARY
  5
C
330
0
100
AcDbDictionary
  3
ACAD_GROUP
350
D
  3
ACAD_LAYOUT
350
1A
  3
ACAD_MATERIAL
350
3B
  3
ACAD_MLEADERSTYLE
350
111
  3
ACAD_MLINESTYLE
350
17
  3
ACAD_PLOTSETTINGS
350
19
  3
ACAD_VISUALSTYLE
350
2A
  3
ACDBHEADERROUNDTRIPXREC
350
EF
  3
ACDBVARIABLEDICTIONARY
350
10F
  0
DICTIONARY
  5
D
102
{ACAD_REACTORS
330
C
102
}
330
C
100
AcDbDictionary
  0
DICTIONARY
  5
1A
102
{ACAD_REACTORS
330
C
102
}
330
C
100
AcDbDictionary
  0
DICTIONARY
  5
3B
102
{ACAD_REACTORS
330
C
102
}
330
C
100
AcDbDictionary
  3
BYBLOCK
350
3D
  3
BYLAYER
350
3C
  3
GLOBAL
350
3E
  0
DICTIONARY
  5
111
102
{ACAD_REACTORS
330
C
102
}
330
C
100
AcDbDictionary
  0
DICTIONARY
  5
17
102
{ACAD_REACTORS
330
C
102
}
330
C
100
AcDbDictionary
  3
STANDARD
350
18
  0
DICTIONARY
  5
19
102
{ACAD_REACTORS
330
C
102
}
330
C
100
AcDbDictionary
  0
DICTIONARY
  5
2A
102
{ACAD_REACTORS
330
C
102
}
330
C
100
AcDbDictionary
  3
2DWIREFRAME
350
2F
  3
3D_HIDDEN
350
31
  3
3DWIREFRAME
350
30
  3
BASIC
350
32
  3
BRIGHTEN
350
36
  3
COLORCHANGE
350
3A
  3
CONCEPTUAL
350
34
  3
DIM
350
35
  3
FACEPATTERN
350
39
  3
FLAT
350
2B
  3
FLATWITHEDGES
350
2C
  3
GOURAUD
350
2D
  3
GOURAUDWITHEDGES
350
2E
  3
LINEPATTERN
350
38
  3
REALISTIC
350
33
  3
THICKEN
350
37
  0
DICTIONARY
  5
EF
102
{ACAD_REACTORS
330
C
102
}
330
C
100
AcDbDictionary
  3
CEPSNTYPE
350
F8
  3
DIMSTYLEDATA
350
10E
  3
FINGERPRINTGUID
350
F9
  3
HYPERLINKBASE
350
F2
  3
INSUNITS
350
F7
  3
LAYOUTDICT
350
F4
  3
LWETCUNION
350
F6
  3
PLOTSETDICT
350
F5
  3
PSVPSCALE
350
FB
  3
PUCSBASE
350
FE
  3
PUCSORGBACK
350
104
  3
PUCSORGBOTTOM
350
100
  3
PUCSORGFRONT
350
103
  3
PUCSORGLEFT
350
101
  3
PUCSORGRIGHT
350
102
  3
PUCSORGTOP
350
FF
  3
PUCSORTHOREF
350
FC
  3
PUCSORTHOVIEW
350
FD
  3
STYLESHEET
350
F3
  3
TSTACKALIGN
350
F0
  3
TSTACKSIZE
350
F1
  3
UCSBASE
350
107
  3
UCSORGBACK
350
10D
  3
UCSORGBOTTOM
350
109
  3
UCSORGFRONT
350
10C
  3
UCSORGLEFT
350
10A
  3
UCSORGRIGHT
350
10B
  3
UCSORGTOP
350
108
  3
UCSORTHOREF
350
105
  3
UCSORTHOVIEW
350
106
  3
VERSIONGUID
350
FA
  0
DICTIONARY
  5
10F
102
{ACAD_REACTORS
330
C
102
}
330
C
100
AcDbDictionary
  3
DIMASSOC
350
112
  3
HIDETEXT
350
113
  0
MATERIAL
  5
3D
102
{ACAD_REACTORS
330
3B
102
}
102
{ACAD_XDICTIONARY
360
116
102
}
330
3B
100
AcDbMaterial
  1
ByBlock
  0
MATERIAL
  5
3C
102
{ACAD_REACTORS
330
3B
102
}
102
{ACAD_XDICTIONARY
360
114
102
}
330
3B
100
AcDbMaterial
  1
ByLayer
  0
MATERIAL
  5
3E
102
{ACAD_REACTORS
330
3B
102
}
102
{ACAD_XDICTIONARY
360
118
102
}
330
3B
100
AcDbMaterial
  1
Global
  0
MLINESTYLE
  5
18
102
{ACAD_REACTORS
330
17
102
}
330
17
100
AcDbMlineStyle
  2
Standard
 70
     0
  3

 62
   256
 51
90.0
 52
90.0
 71
     2
 49
0.5
 62
   256
  6
BYLAYER
 49
-0.5
 62
   256
  6
BYLAYER
  0
ACAD_PROXY_OBJECT
  5
2F
102
{ACAD_REACTORS
330
2A
102
}
330
2A
100
AcDbProxyObject
 90
      499
 91
      501
 93
      436
310
42CC9915DA5C99599C985B595049028333333333333E3BF0000000000000FB0107901411070040501600405405064090741402480A0340
1001
ACAD
1000
AcDbSavedByObjectVersion
1070
     0
  0
ACAD_PROXY_OBJECT
  5
31
102
{ACAD_REACTORS
330
2A
102
}
330
2A
100
AcDbProxyObject
 90
      499
 91
      501
 93
      500
310
424CD108121A5919195B90640502408333333333333E3BF0000000000000FB01079024090700405020000000000001110200405405064090740C02480A0340
1001
ACAD
1000
AcDbSavedByObjectVersion
1070
     0
  0
ACAD_PROXY_OBJECT
  5
30
102
{ACAD_REACTORS
330
2A
102
}
330
2A
100
AcDbProxyObject
 90
      499
 91
      501
 93
      436
310
42CCD915DA5C99599C985B595059028333333333333E3BF0000000000000FB0107901411070040501600405405064090741402480A0340
1001
ACAD
1000
AcDbSavedByObjectVersion
1070
     0
  0
ACAD_PROXY_OBJECT
  5
32
102
{ACAD_REACTORS
330
2A
102
}
330
2A
100
AcDbProxyObject
 90
      499
 91
      501
 93
      388
310
4150985CDA58D07406404333333333333E3BF0000000000000FB0107A41107004050150841D405064090741402480A0350
1001
ACAD
1000
AcDbSavedByObjectVersion
1070
     0
  0
ACAD_PROXY_OBJECT
  5
36
102
{ACAD_REACTORS
330
2A
102
}
330
2A
100
AcDbProxyObject
 90
      499
 91
      501
 93
      428
310
42109C9A59DA1D195B90C409028333333333333E3BF0000000000000FB010790141107004050150841D405064090741402480A029950
1001
ACAD
1000
AcDbSavedByObjectVersion
1070
     0
  0
ACAD_PROXY_OBJECT
  5
3A
102
{ACAD_REACTORS
330
2A
102
}
330
2A
100
AcDbProxyObject
 90
      499
 91
      501
 93
      452
310
42D0DBDB1BDC90DA185B99D95104090240C333333333333E3BF0000000000000FB0108901411070040501508421405064090741402480A0350
1001
ACAD
1000
AcDbSavedByObjectVersion
1070
     0
  0
ACAD_PROXY_OBJECT
  5
34
102
{ACAD_REACTORS
330
2A
102
}
330
2A
100
AcDbProxyObject
 90
      499
 91
      501
 93
      500
310
4290DBDB98D95C1D1D585B10940D028333333333333E3BF0000000000000FB0107902409070040501000000000000111010841D405064090740C02480A0340
1001
ACAD
1000
AcDbSavedByObjectVersion
1070
     0
  0
ACAD_PROXY_OBJECT
  5
35
102
{ACAD_REACTORS
330
2A
102
}
330
2A
100
AcDbProxyObject
 90
      499
 91
      501
 93
      412
310
40D11A5B50B409028333333333333E3BF0000000000000FB010790141107004050150841D405064090741402480A02677FFFFFD0
1001
ACAD
1000
AcDbSavedByObjectVersion
1070
     0
  0
ACAD_PROXY_OBJECT
  5
39
102
{ACAD_REACTORS
330
2A
102
}
330
2A
100
AcDbProxyObject
 90
      499
 91
      501
 93
      444
310
42D19858D95C185D1D195C9B90F409028333333333333E3BF0000000000000FB010790141107004050150841D405064090741402480A0350
1001
ACAD
1000
AcDbSavedByObjectVersion
1070
     0
  0
ACAD_PROXY_OBJECT
  5
2B
102
{ACAD_REACTORS
330
2A
102
}
330
2A
100
AcDbProxyObject
 90
      499
 91
      501
 93
      388
310
41119B185D240901404333333333333E3BF0000000000000F9010740A41107004050150841D405064090741402480A1B50
1001
ACAD
1000
AcDbSavedByObjectVersion
1070
     0
  0
ACAD_PROXY_OBJECT
  5
2C
102
{ACAD_REACTORS
330
2A
102
}
330
2A
100
AcDbProxyObject
 90
      499
 91
      501
 93
      476
310
43519B185D15DA5D1A115919D95CD0140901404333333333333E3BF0000000000000F9010740901411070040501600405405064090741402480A1B50
1001
ACAD
1000
AcDbSavedByObjectVersion
1070
     0
  0
ACAD_PROXY_OBJECT
  5
2D
102
{ACAD_REACTORS
330
2A
102
}
330
2A
100
AcDbProxyObject
 90
      499
 91
      501
 93
      412
310
41D1DBDD5C985D5910240902404333333333333E3BF0000000000000F9010740A411070040501641D405064090741402480A1B50
1001
ACAD
1000
AcDbSavedByObjectVersion
1070
     0
  0
ACAD_PROXY_OBJECT
  5
2E
102
{ACAD_REACTORS
330
2A
102
}
330
2A
100
AcDbProxyObject
 90
      499
 91
      501
 93
      500
310
4411DBDD5C985D5915DA5D1A115919D95CD0340902404333333333333E3BF0000000000000F9010740901411070040501600405405064090741402480A1B50
1001
ACAD
1000
AcDbSavedByObjectVersion
1070
     0
  0
ACAD_PROXY_OBJECT
  5
38
102
{ACAD_REACTORS
330
2A
102
}
330
2A
100
AcDbProxyObject
 90
      499
 91
      501
 93
      444
310
42D31A5B995C185D1D195C9B90E409028333333333333E3BF0000000000000FB010790141107004050750841D405064090741402483A0350
1001
ACAD
1000
AcDbSavedByObjectVersion
1070
     0
  0
ACAD_PROXY_OBJECT
  5
33
102
{ACAD_REACTORS
330
2A
102
}
330
2A
100
AcDbProxyObject
 90
      499
 91
      501
 93
      420
310
425499585B1A5CDD1A58D08409028333333333333E3BF0000000000000FB01079019070040501508421405064090741402480A1B40
1001
ACAD
1000
AcDbSavedByObjectVersion
1070
     0
  0
ACAD_PROXY_OBJECT
  5
37
102
{ACAD_REACTORS
330
2A
102
}
330
2A
100
AcDbProxyObject
 90
      499
 91
      501
 93
      412
310
41D51A1A58DAD95B90D409028333333333333E3BF0000000000000FB010790141107004050150C41D405064090741402480A0350
1001
ACAD
1000
AcDbSavedByObjectVersion
1070
     0
  0
XRECORD
  5
F8
102
{ACAD_REACTORS
330
EF
102
}
330
EF
100
AcDbXrecord
 90
        0
  0
XRECORD
  5
10E
102
{ACAD_REACTORS
330
EF
102
}
330
EF
100
AcDbXrecord
1000
DSTYLE
1002
{
1070
   340
340
11
1002
}
  0
XRECORD
  5
F9
102
{ACAD_REACTORS
330
EF
102
}
330
EF
100
AcDbXrecord
  1
{406AFF0D-071F-40A8-AEEE-CAD126E2E3F5}
  0
XRECORD
  5
F2
102
{ACAD_REACTORS
330
EF
102
}
330
EF
100
AcDbXrecord
  1

  0
XRECORD
  5
F7
102
{ACAD_REACTORS
330
EF
102
}
330
EF
100
AcDbXrecord
 90
        1
  0
XRECORD
  5
F4
102
{ACAD_REACTORS
330
EF
102
}
330
EF
100
AcDbXrecord
340
1A
  0
XRECORD
  5
F6
102
{ACAD_REACTORS
330
EF
102
}
330
EF
100
AcDbXrecord
 90
    10269
  0
XRECORD
  5
F5
102
{ACAD_REACTORS
330
EF
102
}
330
EF
100
AcDbXrecord
340
19
  0
XRECORD
  5
FB
102
{ACAD_REACTORS
330
EF
102
}
330
EF
100
AcDbXrecord
 40
0.0
  0
XRECORD
  5
FE
102
{ACAD_REACTORS
330
EF
102
}
330
EF
100
AcDbXrecord
340
0
  0
XRECORD
  5
104
102
{ACAD_REACTORS
330
EF
102
}
330
EF
100
AcDbXrecord
 10
0.0
 20
0.0
 30
0.0
  0
XRECORD
  5
100
102
{ACAD_REACTORS
330
EF
102
}
330
EF
100
AcDbXrecord
 10
0.0
 20
0.0
 30
0.0
  0
XRECORD
  5
103
102
{ACAD_REACTORS
330
EF
102
}
330
EF
100
AcDbXrecord
 10
0.0
 20
0.0
 30
0.0
  0
XRECORD
  5
101
102
{ACAD_REACTORS
330
EF
102
}
330
EF
100
AcDbXrecord
 10
0.0
 20
0.0
 30
0.0
  0
XRECORD
  5
102
102
{ACAD_REACTORS
330
EF
102
}
330
EF
100
AcDbXrecord
 10
0.0
 20
0.0
 30
0.0
  0
XRECORD
  5
FF
102
{ACAD_REACTORS
330
EF
102
}
330
EF
100
AcDbXrecord
 10
0.0
 20
0.0
 30
0.0
  0
XRECORD
  5
FC
102
{ACAD_REACTORS
330
EF
102
}
330
EF
100
AcDbXrecord
340
0
  0
XRECORD
  5
FD
102
{ACAD_REACTORS
330
EF
102
}
330
EF
100
AcDbXrecord
 70
     0
  0
XRECORD
  5
F3
102
{ACAD_REACTORS
330
EF
102
}
330
EF
100
AcDbXrecord
  1

  0
XRECORD
  5
F0
102
{ACAD_REACTORS
330
EF
102
}
330
EF
100
AcDbXrecord
 90
        1
  0
XRECORD
  5
F1
102
{ACAD_REACTORS
330
EF
102
}
330
EF
100
AcDbXrecord
 90
       70
  0
XRECORD
  5
107
102
{ACAD_REACTORS
330
EF
102
}
330
EF
100
AcDbXrecord
340
0
  0
XRECORD
  5
10D
102
{ACAD_REACTORS
330
EF
102
}
330
EF
100
AcDbXrecord
 10
0.0
 20
0.0
 30
0.0
  0
XRECORD
  5
109
102
{ACAD_REACTORS
330
EF
102
}
330
EF
100
AcDbXrecord
 10
0.0
 20
0.0
 30
0.0
  0
XRECORD
  5
10C
102
{ACAD_REACTORS
330
EF
102
}
330
EF
100
AcDbXrecord
 10
0.0
 20
0.0
 30
0.0
  0
XRECORD
  5
10A
102
{ACAD_REACTORS
330
EF
102
}
330
EF
100
AcDbXrecord
 10
0.0
 20
0.0
 30
0.0
  0
XRECORD
  5
10B
102
{ACAD_REACTORS
330
EF
102
}
330
EF
100
AcDbXrecord
 10
0.0
 20
0.0
 30
0.0
  0
XRECORD
  5
108
102
{ACAD_REACTORS
330
EF
102
}
330
EF
100
AcDbXrecord
 10
0.0
 20
0.0
 30
0.0
  0
XRECORD
  5
105
102
{ACAD_REACTORS
330
EF
102
}
330
EF
100
AcDbXrecord
340
0
  0
XRECORD
  5
106
102
{ACAD_REACTORS
330
EF
102
}
330
EF
100
AcDbXrecord
 70
     0
  0
XRECORD
  5
FA
102
{ACAD_REACTORS
330
EF
102
}
330
EF
100
AcDbXrecord
  1
{FAEB1C32-E019-11D5-929B-00C0DF256EC4}
  0
DICTIONARYVAR
  5
112
102
{ACAD_REACTORS
330
10F
102
}
330
10F
100
DictionaryVariables
280
     0
  1
2
  0
DICTIONARYVAR
  5
113
102
{ACAD_REACTORS
330
10F
102
}
330
10F
100
DictionaryVariables
280
     0
  1
1
  0
DICTIONARY
  5
116
330
3D
100
AcDbDictionary
280
     1
  3
ACAD_XREC_ROUNDTRIP
360
117
  0
DICTIONARY
  5
114
330
3C
100
AcDbDictionary
280
     1
  3
ACAD_XREC_ROUNDTRIP
360
115
  0
DICTIONARY
  5
118
330
3E
100
AcDbDictionary
280
     1
  3
ACAD_XREC_ROUNDTRIP
360
119
  0
XRECORD
  5
117
102
{ACAD_REACTORS
330
116
102
}
330
116
100
AcDbXrecord
102
MATERIAL
148
0.0
149
0.0
149
0.0
 93
        0
 94
      127
282
     0
 72
     1
 77
     1
171
     1
175
     1
179
     1
273
     0
  0
XRECORD
  5
115
102
{ACAD_REACTORS
330
114
102
}
330
114
100
AcDbXrecord
102
MATERIAL
148
0.0
149
0.0
149
0.0
 93
        0
 94
      127
282
     0
 72
     1
 77
     1
171
     1
175
     1
179
     1
273
     0
  0
XRECORD
  5
119
102
{ACAD_REACTORS
330
118
102
}
330
118
100
AcDbXrecord
102
MATERIAL
148
0.0
149
0.0
149
0.0
 93
        0
 94
      127
282
     0
 72
     1
 77
     1
171
     1
175
     1
179
     1
273
     0
  0
ENDSEC
  0
EOF
